Bodoni-16-Medium.ufo
<glyph name="exclam" format="2">
  <advance width="1433"/>
  <unicode hex="0021"/>
  <outline>
    <contour>
      <point x="1016" y="2658" type="curve" smooth="yes"/>
      <point x="971" y="1998"/>
      <point x="742" y="1517"/>
      <point x="742" y="954" type="curve"/>
      <point x="684" y="954" type="line"/>
      <point x="684" y="1517"/>
      <point x="455" y="1998"/>
      <point x="410" y="2658" type="curve" smooth="yes"/>
      <point x="409" y="2687"/>
      <point x="410" y="2711"/>
      <point x="410" y="2736" type="curve" smooth="yes"/>
      <point x="410" y="2944"/>
      <point x="488" y="3105"/>
      <point x="712" y="3105" type="curve" smooth="yes"/>
      <point x="936" y="3105"/>
      <point x="1020" y="2944"/>
      <point x="1020" y="2736" type="curve" smooth="yes"/>
      <point x="1020" y="2711"/>
      <point x="1017" y="2687"/>
    </contour>
    <component base="period" xOffset="246"/>
  </outline>
</glyph>
<glyph name="dollar" format="2">
  <advance width="4568"/>
  <unicode hex="0024"/>
  <outline>
    <contour>
      <point x="2496" y="6640" type="line"/>
      <point x="2624" y="6640" type="line"/>
      <point x="2624" y="-640" type="line"/>
      <point x="2496" y="-640" type="line"/>
    </contour>
    <contour>
      <point x="1808" y="6640" type="line"/>
      <point x="1944" y="6640" type="line"/>
      <point x="1944" y="-640" type="line"/>
      <point x="1808" y="-640" type="line"/>
    </contour>
    <contour>
      <point x="3832" y="5096" type="curve"/>
      <point x="3736" y="5528"/>
      <point x="3160" y="5952"/>
      <point x="2408" y="5952" type="curve" smooth="yes"/>
      <point x="1624" y="5952"/>
      <point x="1136" y="5520"/>
      <point x="1136" y="4912" type="curve" smooth="yes"/>
      <point x="1136" y="3464"/>
      <point x="4248" y="3920"/>
      <point x="4248" y="1712" type="curve" smooth="yes"/>
      <point x="4248" y="592"/>
      <point x="3480" y="-120"/>
      <point x="2304" y="-120" type="curve" smooth="yes"/>
      <point x="904" y="-120"/>
      <point x="232" y="640"/>
      <point x="232" y="1192" type="curve" smooth="yes"/>
      <point x="232" y="1592"/>
      <point x="464" y="1896"/>
      <point x="848" y="1896" type="curve" smooth="yes"/>
      <point x="1120" y="1896"/>
      <point x="1408" y="1688"/>
      <point x="1408" y="1304" type="curve" smooth="yes"/>
      <point x="1408" y="952"/>
      <point x="1096" y="752"/>
      <point x="808" y="752" type="curve" smooth="yes"/>
      <point x="632" y="752"/>
      <point x="496" y="832"/>
      <point x="440" y="912" type="curve"/>
      <point x="632" y="552"/>
      <point x="1088" y="0"/>
      <point x="2248" y="0" type="curve" smooth="yes"/>
      <point x="3096" y="0"/>
      <point x="3576" y="496"/>
      <point x="3576" y="1248" type="curve" smooth="yes"/>
      <point x="3576" y="2856"/>
      <point x="464" y="2312"/>
      <point x="464" y="4488" type="curve" smooth="yes"/>
      <point x="464" y="5464"/>
      <point x="1384" y="6080"/>
      <point x="2352" y="6080" type="curve" smooth="yes"/>
      <point x="3256" y="6080"/>
      <point x="4056" y="5520"/>
      <point x="4056" y="4840" type="curve" smooth="yes"/>
      <point x="4056" y="4440"/>
      <point x="3832" y="4152"/>
      <point x="3448" y="4152" type="curve" smooth="yes"/>
      <point x="3176" y="4152"/>
      <point x="2888" y="4344"/>
      <point x="2888" y="4720" type="curve" smooth="yes"/>
      <point x="2888" y="5064"/>
      <point x="3168" y="5280"/>
      <point x="3456" y="5280" type="curve" smooth="yes"/>
      <point x="3608" y="5280"/>
      <point x="3768" y="5192"/>
    </contour>
  </outline>
</glyph>
<glyph name="percent" format="2">
  <advance width="1008"/>
  <unicode hex="0025"/>
  <outline>
    <contour>
      <point x="685" y="210" type="curve" smooth="yes"/>
      <point x="685" y="97"/>
      <point x="701" y="4"/>
      <point x="765" y="4" type="curve" smooth="yes"/>
      <point x="829" y="4"/>
      <point x="845" y="97"/>
      <point x="845" y="210" type="curve" smooth="yes"/>
      <point x="845" y="323"/>
      <point x="829" y="416"/>
      <point x="765" y="416" type="curve" smooth="yes"/>
      <point x="701" y="416"/>
      <point x="685" y="323"/>
    </contour>
    <contour>
      <point x="557" y="210" type="curve" smooth="yes"/>
      <point x="557" y="353"/>
      <point x="652" y="430"/>
      <point x="765" y="430" type="curve" smooth="yes"/>
      <point x="878" y="430"/>
      <point x="973" y="353"/>
      <point x="973" y="210" type="curve" smooth="yes"/>
      <point x="973" y="67"/>
      <point x="858" y="-10"/>
      <point x="765" y="-10" type="curve" smooth="yes"/>
      <point x="652" y="-10"/>
      <point x="557" y="67"/>
    </contour>
    <contour>
      <point x="752" y="750" type="line"/>
      <point x="769" y="750" type="line"/>
      <point x="256" y="0" type="line"/>
      <point x="239" y="0" type="line"/>
    </contour>
    <contour>
      <point x="163" y="540" type="curve" smooth="yes"/>
      <point x="163" y="427"/>
      <point x="179" y="334"/>
      <point x="243" y="334" type="curve" smooth="yes"/>
      <point x="307" y="334"/>
      <point x="323" y="427"/>
      <point x="323" y="540" type="curve" smooth="yes"/>
      <point x="323" y="653"/>
      <point x="307" y="746"/>
      <point x="243" y="746" type="curve" smooth="yes"/>
      <point x="179" y="746"/>
      <point x="163" y="653"/>
    </contour>
    <contour>
      <point x="35" y="540" type="curve" smooth="yes"/>
      <point x="35" y="683"/>
      <point x="130" y="760"/>
      <point x="243" y="760" type="curve" smooth="yes"/>
      <point x="356" y="760"/>
      <point x="451" y="683"/>
      <point x="451" y="540" type="curve" smooth="yes"/>
      <point x="451" y="397"/>
      <point x="336" y="320"/>
      <point x="243" y="320" type="curve" smooth="yes"/>
      <point x="130" y="320"/>
      <point x="35" y="397"/>
    </contour>
  </outline>
</glyph>
<glyph name="ampersand" format="2">
  <advance width="3410"/>
  <unicode hex="0026"/>
  <outline>
    <contour>
      <point x="1557" y="1824" type="curve"/>
      <point x="1526" y="1869" type="line"/>
      <point x="1682" y="1969"/>
      <point x="1878" y="2154"/>
      <point x="1878" y="2596" type="curve" smooth="yes"/>
      <point x="1878" y="2809"/>
      <point x="1815" y="3072"/>
      <point x="1547" y="3072" type="curve" smooth="yes"/>
      <point x="1278" y="3072"/>
      <point x="1182" y="2859"/>
      <point x="1182" y="2652" type="curve" smooth="yes"/>
      <point x="1182" y="2499"/>
      <point x="1294" y="2269"/>
      <point x="1470" y="2007" type="curve" smooth="yes"/>
      <point x="2763" y="57" type="line"/>
      <point x="3283" y="57" type="line"/>
      <point x="3283" y="0" type="line"/>
      <point x="2201" y="0" type="line"/>
      <point x="846" y="2007" type="line" smooth="yes"/>
      <point x="740" y="2163"/>
      <point x="657" y="2368"/>
      <point x="657" y="2511" type="curve" smooth="yes"/>
      <point x="657" y="2880"/>
      <point x="1026" y="3113"/>
      <point x="1552" y="3113" type="curve" smooth="yes"/>
      <point x="2042" y="3113"/>
      <point x="2383" y="2908"/>
      <point x="2383" y="2590" type="curve" smooth="yes"/>
      <point x="2383" y="2178"/>
      <point x="2005" y="2020"/>
    </contour>
    <contour>
      <point x="1132" y="1662" type="curve"/>
      <point x="1162" y="1620" type="line"/>
      <point x="889" y="1472"/>
      <point x="714" y="1279"/>
      <point x="714" y="888" type="curve" smooth="yes"/>
      <point x="714" y="483"/>
      <point x="975" y="109"/>
      <point x="1393" y="109" type="curve" smooth="yes"/>
      <point x="2115" y="109"/>
      <point x="2767" y="977"/>
      <point x="2850" y="1856" type="curve"/>
      <point x="2908" y="1856" type="line"/>
      <point x="2807" y="950"/>
      <point x="2158" y="-41"/>
      <point x="1132" y="-41" type="curve" smooth="yes"/>
      <point x="536" y="-41"/>
      <point x="162" y="254"/>
      <point x="162" y="715" type="curve" smooth="yes"/>
      <point x="162" y="1334"/>
      <point x="966" y="1583"/>
    </contour>
    <contour>
      <point x="2310" y="1884" type="line"/>
      <point x="3293" y="1884" type="line"/>
      <point x="3293" y="1827" type="line"/>
      <point x="2310" y="1827" type="line"/>
    </contour>
  </outline>
</glyph>
<glyph name="parenleft" format="2">
  <advance width="2928"/>
  <unicode hex="0028"/>
  <outline>
    <contour>
      <point x="2824" y="-1264" type="curve"/>
      <point x="2776" y="-1360" type="line"/>
      <point x="1472" y="-800"/>
      <point x="520" y="736"/>
      <point x="520" y="2600" type="curve" smooth="yes"/>
      <point x="520" y="4464"/>
      <point x="1472" y="5840"/>
      <point x="2776" y="6400" type="curve"/>
      <point x="2824" y="6304" type="line"/>
      <point x="1912" y="5712"/>
      <point x="1472" y="4136"/>
      <point x="1472" y="2600" type="curve" smooth="yes"/>
      <point x="1472" y="1064"/>
      <point x="1912" y="-672"/>
    </contour>
  </outline>
</glyph>
<glyph name="plus" format="2">
  <advance width="4240"/>
  <unicode hex="002B"/>
  <outline>
    <contour>
      <point x="2064" y="880" type="line"/>
      <point x="2064" y="4160" type="line"/>
      <point x="2176" y="4160" type="line"/>
      <point x="2176" y="880" type="line"/>
    </contour>
    <contour>
      <point x="480" y="2584" type="line"/>
      <point x="3760" y="2584" type="line"/>
      <point x="3760" y="2472" type="line"/>
      <point x="480" y="2472" type="line"/>
    </contour>
  </outline>
</glyph>
<glyph name="comma" format="2">
  <advance width="239"/>
  <unicode hex="002C"/>
  <outline>
    <contour>
      <point x="40" y="61" type="curve" smooth="yes"/>
      <point x="40" y="100"/>
      <point x="75" y="132"/>
      <point x="119" y="132" type="curve" smooth="yes"/>
      <point x="164" y="132"/>
      <point x="201" y="95"/>
      <point x="201" y="16" type="curve" smooth="yes"/>
      <point x="201" y="-66"/>
      <point x="140" y="-153"/>
      <point x="38" y="-153" type="curve"/>
      <point x="38" y="-139" type="line"/>
      <point x="122" y="-139"/>
      <point x="190" y="-72"/>
      <point x="185" y="39" type="curve"/>
      <point x="169" y="7"/>
      <point x="140" y="-10"/>
      <point x="109" y="-10" type="curve" smooth="yes"/>
      <point x="66" y="-10"/>
      <point x="40" y="22"/>
    </contour>
  </outline>
</glyph>
<glyph name="period" format="2">
  <advance width="941"/>
  <unicode hex="002E"/>
  <outline>
    <contour>
      <point x="164" y="266.5" type="curve" smooth="yes"/>
      <point x="164" y="435"/>
      <point x="303" y="573.5"/>
      <point x="471.5" y="573.5" type="curve" smooth="yes"/>
      <point x="640" y="573.5"/>
      <point x="777.5" y="435"/>
      <point x="777.5" y="266.5" type="curve" smooth="yes"/>
      <point x="777.5" y="98"/>
      <point x="640" y="-40.5"/>
      <point x="471.5" y="-40.5" type="curve" smooth="yes"/>
      <point x="303" y="-40.5"/>
      <point x="164" y="98"/>
    </contour>
  </outline>
</glyph>
<glyph name="one" format="2">
  <advance width="459"/>
  <unicode hex="0031"/>
  <outline>
    <contour>
      <point x="50" y="14" type="line"/>
      <point x="409" y="14" type="line"/>
      <point x="409" y="0" type="line"/>
      <point x="50" y="0" type="line"/>
    </contour>
    <contour>
      <point x="67" y="750" type="line"/>
      <point x="299" y="750" type="line"/>
      <point x="299" y="7" type="line"/>
      <point x="180" y="7" type="line"/>
      <point x="180" y="736" type="line"/>
      <point x="67" y="736" type="line"/>
    </contour>
  </outline>
</glyph>
<glyph name="two" format="2">
  <advance width="2354"/>
  <unicode hex="0032"/>
  <outline>
    <contour>
      <point x="2212" y="0" type="line"/>
      <point x="164" y="0" type="line"/>
      <point x="164" y="338" type="line"/>
      <point x="1044" y="1126" type="line" smooth="yes"/>
      <point x="1389" y="1437"/>
      <point x="1594" y="1796"/>
      <point x="1594" y="2212" type="curve" smooth="yes"/>
      <point x="1594" y="2700"/>
      <point x="1382" y="2988"/>
      <point x="971" y="2988" type="curve" smooth="yes"/>
      <point x="561" y="2988"/>
      <point x="281" y="2669"/>
      <point x="278" y="2265" type="curve"/>
      <point x="322" y="2366"/>
      <point x="418" y="2446"/>
      <point x="544" y="2446" type="curve" smooth="yes"/>
      <point x="708" y="2446"/>
      <point x="852" y="2328"/>
      <point x="852" y="2154" type="curve" smooth="yes"/>
      <point x="852" y="1959"/>
      <point x="696" y="1836"/>
      <point x="522" y="1836" type="curve" smooth="yes"/>
      <point x="348" y="1836"/>
      <point x="207" y="1964"/>
      <point x="207" y="2249" type="curve" smooth="yes"/>
      <point x="207" y="2728"/>
      <point x="555" y="3113"/>
      <point x="1177" y="3113" type="curve" smooth="yes"/>
      <point x="1785" y="3113"/>
      <point x="2126" y="2755"/>
      <point x="2126" y="2335" type="curve" smooth="yes"/>
      <point x="2126" y="1895"/>
      <point x="1781" y="1670"/>
      <point x="1519" y="1448" type="curve" smooth="yes"/>
      <point x="462" y="492" type="line"/>
      <point x="2154" y="492" type="line"/>
      <point x="2154" y="799" type="line"/>
      <point x="2212" y="799" type="line"/>
    </contour>
  </outline>
</glyph>
<glyph name="three" format="2">
  <advance width="2236"/>
  <unicode hex="0033"/>
  <outline>
    <contour>
      <point x="2072" y="829" type="curve" smooth="yes"/>
      <point x="2072" y="287"/>
      <point x="1595" y="-41"/>
      <point x="997" y="-41" type="curve" smooth="yes"/>
      <point x="384" y="-41"/>
      <point x="102" y="292"/>
      <point x="102" y="608" type="curve" smooth="yes"/>
      <point x="102" y="807"/>
      <point x="230" y="930"/>
      <point x="404" y="930" type="curve" smooth="yes"/>
      <point x="558" y="930"/>
      <point x="676" y="824"/>
      <point x="676" y="646" type="curve" smooth="yes"/>
      <point x="676" y="484"/>
      <point x="537" y="369"/>
      <point x="387" y="369" type="curve" smooth="yes"/>
      <point x="296" y="369"/>
      <point x="240" y="409"/>
      <point x="217" y="446" type="curve"/>
      <point x="259" y="263"/>
      <point x="490" y="42"/>
      <point x="912" y="42" type="curve" smooth="yes"/>
      <point x="1379" y="42"/>
      <point x="1536" y="413"/>
      <point x="1536" y="829" type="curve" smooth="yes"/>
      <point x="1536" y="1163"/>
      <point x="1421" y="1634"/>
      <point x="780" y="1634" type="curve"/>
      <point x="780" y="1675" type="line"/>
      <point x="1788" y="1675"/>
      <point x="2072" y="1290"/>
    </contour>
    <contour>
      <point x="780" y="1647" type="curve"/>
      <point x="780" y="1688" type="line"/>
      <point x="1380" y="1688"/>
      <point x="1414" y="2149"/>
      <point x="1414" y="2421" type="curve" smooth="yes"/>
      <point x="1414" y="2734"/>
      <point x="1266" y="3030"/>
      <point x="962" y="3030" type="curve" smooth="yes"/>
      <point x="674" y="3030"/>
      <point x="442" y="2871"/>
      <point x="371" y="2709" type="curve"/>
      <point x="402" y="2749"/>
      <point x="456" y="2771"/>
      <point x="520" y="2771" type="curve" smooth="yes"/>
      <point x="660" y="2771"/>
      <point x="794" y="2669"/>
      <point x="794" y="2500" type="curve" smooth="yes"/>
      <point x="794" y="2310"/>
      <point x="643" y="2214"/>
      <point x="510" y="2214" type="curve" smooth="yes"/>
      <point x="356" y="2214"/>
      <point x="225" y="2315"/>
      <point x="225" y="2509" type="curve" smooth="yes"/>
      <point x="225" y="2835"/>
      <point x="610" y="3109"/>
      <point x="1028" y="3109" type="curve" smooth="yes"/>
      <point x="1524" y="3109"/>
      <point x="1950" y="2862"/>
      <point x="1950" y="2411" type="curve" smooth="yes"/>
      <point x="1950" y="2001"/>
      <point x="1746" y="1647"/>
    </contour>
  </outline>
</glyph>
<glyph name="four" format="2">
  <advance width="2528"/>
  <unicode hex="0034"/>
  <outline>
    <contour>
      <point x="2345" y="56" type="line"/>
      <point x="2345" y="0" type="line"/>
      <point x="1136.5" y="0" type="line"/>
      <point x="1136.5" y="56" type="line"/>
      <point x="1525.5" y="56" type="line"/>
      <point x="1525.5" y="2805" type="line"/>
      <point x="243.5" y="908" type="line"/>
      <point x="2488" y="908" type="line"/>
      <point x="2488" y="852" type="line"/>
      <point x="138" y="852" type="line"/>
      <point x="1638.5" y="3072" type="line"/>
      <point x="2038" y="3072" type="line"/>
      <point x="2038" y="56" type="line"/>
    </contour>
  </outline>
</glyph>
<glyph name="five" format="2">
  <advance width="2119"/>
  <unicode hex="0035"/>
  <outline>
    <contour>
      <point x="1854" y="2580" type="line"/>
      <point x="312" y="2580" type="line"/>
      <point x="312" y="1503" type="line"/>
      <point x="254" y="1503" type="line"/>
      <point x="254" y="3072" type="line"/>
      <point x="1796" y="3072" type="line"/>
      <point x="1796" y="3297" type="line"/>
      <point x="1854" y="3297" type="line"/>
    </contour>
    <contour>
      <point x="223" y="355" type="curve"/>
      <point x="268" y="213"/>
      <point x="506" y="23"/>
      <point x="817" y="23" type="curve" smooth="yes"/>
      <point x="1304" y="23"/>
      <point x="1444" y="501"/>
      <point x="1444" y="927" type="curve" smooth="yes"/>
      <point x="1444" y="1435"/>
      <point x="1271" y="1808"/>
      <point x="916" y="1808" type="curve" smooth="yes"/>
      <point x="612" y="1808"/>
      <point x="403" y="1635"/>
      <point x="332" y="1503" type="curve"/>
      <point x="282" y="1503" type="line"/>
      <point x="358" y="1675"/>
      <point x="608" y="1894"/>
      <point x="1032" y="1894" type="curve" smooth="yes"/>
      <point x="1610" y="1894"/>
      <point x="1997" y="1541"/>
      <point x="1997" y="927" type="curve" smooth="yes"/>
      <point x="1997" y="385"/>
      <point x="1534" y="-41"/>
      <point x="885" y="-41" type="curve" smooth="yes"/>
      <point x="457" y="-41"/>
      <point x="82" y="212"/>
      <point x="82" y="548" type="curve" smooth="yes"/>
      <point x="82" y="747"/>
      <point x="217" y="864"/>
      <point x="376" y="864" type="curve" smooth="yes"/>
      <point x="519" y="864"/>
      <point x="672" y="773"/>
      <point x="672" y="578" type="curve" smooth="yes"/>
      <point x="672" y="404"/>
      <point x="526" y="287"/>
      <point x="372" y="287" type="curve" smooth="yes"/>
      <point x="300" y="287"/>
      <point x="253" y="320"/>
    </contour>
  </outline>
</glyph>
<glyph name="six" format="2">
  <advance width="4640"/>
  <unicode hex="0036"/>
  <outline>
    <contour>
      <point x="3392" y="2000" type="curve" smooth="yes"/>
      <point x="3392" y="3152"/>
      <point x="3024" y="3752"/>
      <point x="2392" y="3752" type="curve" smooth="yes"/>
      <point x="1752" y="3752"/>
      <point x="1408" y="3184"/>
      <point x="1408" y="2240" type="curve"/>
      <point x="1328" y="2240" type="line"/>
      <point x="1328" y="3208"/>
      <point x="1592" y="3928"/>
      <point x="2600" y="3928" type="curve" smooth="yes"/>
      <point x="3440" y="3928"/>
      <point x="4400" y="3360"/>
      <point x="4400" y="2000" type="curve" smooth="yes"/>
      <point x="4400" y="800"/>
      <point x="3672" y="-80"/>
      <point x="2432" y="-80" type="curve" smooth="yes"/>
      <point x="1192" y="-80"/>
      <point x="400" y="800"/>
      <point x="400" y="2480" type="curve" smooth="yes"/>
      <point x="400" y="4424"/>
      <point x="1888" y="6080"/>
      <point x="3800" y="6080" type="curve"/>
      <point x="3800" y="5984" type="line"/>
      <point x="2392" y="5984"/>
      <point x="1424" y="4376"/>
      <point x="1424" y="2840" type="curve"/>
      <point x="1408" y="2240" type="line"/>
      <point x="1408" y="1088"/>
      <point x="1680" y="32"/>
      <point x="2456" y="32" type="curve" smooth="yes"/>
      <point x="3232" y="32"/>
      <point x="3392" y="1008"/>
    </contour>
  </outline>
</glyph>
<glyph name="seven" format="2">
  <advance width="2139"/>
  <unicode hex="0037"/>
  <outline>
    <contour>
      <point x="647" y="342" type="curve" smooth="yes"/>
      <point x="647" y="666"/>
      <point x="972" y="1073"/>
      <point x="1226" y="1517" type="curve" smooth="yes"/>
      <point x="1378" y="1789"/>
      <point x="1585" y="2204"/>
      <point x="1764" y="2560" type="curve"/>
      <point x="221" y="2560" type="line"/>
      <point x="221" y="2253" type="line"/>
      <point x="164" y="2253" type="line"/>
      <point x="164" y="3072" type="line"/>
      <point x="2100" y="3072" type="line"/>
      <point x="2100" y="3072"/>
      <point x="1600" y="2078"/>
      <point x="1299" y="1524" type="curve" smooth="yes"/>
      <point x="1104" y="1158"/>
      <point x="1052" y="1047"/>
      <point x="1052" y="881" type="curve" smooth="yes"/>
      <point x="1052" y="603"/>
      <point x="1303" y="541"/>
      <point x="1303" y="289" type="curve" smooth="yes"/>
      <point x="1303" y="107"/>
      <point x="1189" y="-41"/>
      <point x="978" y="-41" type="curve" smooth="yes"/>
      <point x="787" y="-41"/>
      <point x="647" y="62"/>
    </contour>
  </outline>
</glyph>
<glyph name="eight" format="2">
  <advance width="570"/>
  <unicode hex="0038"/>
  <outline>
    <contour>
      <point x="184" y="560" type="curve" smooth="yes"/>
      <point x="184" y="466"/>
      <point x="208" y="393"/>
      <point x="285" y="393" type="curve" smooth="yes"/>
      <point x="362" y="393"/>
      <point x="386" y="466"/>
      <point x="386" y="560" type="curve" smooth="yes"/>
      <point x="386" y="652"/>
      <point x="362" y="745"/>
      <point x="285" y="745" type="curve" smooth="yes"/>
      <point x="208" y="745"/>
      <point x="184" y="652"/>
    </contour>
    <contour>
      <point x="60" y="560" type="curve" smooth="yes"/>
      <point x="60" y="670"/>
      <point x="138" y="760"/>
      <point x="285" y="760" type="curve" smooth="yes"/>
      <point x="432" y="760"/>
      <point x="510" y="670"/>
      <point x="510" y="560" type="curve" smooth="yes"/>
      <point x="510" y="450"/>
      <point x="432" y="382"/>
      <point x="285" y="382" type="curve" smooth="yes"/>
      <point x="138" y="382"/>
      <point x="60" y="450"/>
    </contour>
    <contour>
      <point x="164" y="190" type="curve" smooth="yes"/>
      <point x="164" y="92"/>
      <point x="196" y="5"/>
      <point x="285" y="5" type="curve" smooth="yes"/>
      <point x="374" y="5"/>
      <point x="406" y="92"/>
      <point x="406" y="190" type="curve" smooth="yes"/>
      <point x="406" y="288"/>
      <point x="374" y="377"/>
      <point x="285" y="377" type="curve" smooth="yes"/>
      <point x="196" y="377"/>
      <point x="164" y="288"/>
    </contour>
    <contour>
      <point x="40" y="190" type="curve" smooth="yes"/>
      <point x="40" y="310"/>
      <point x="118" y="389"/>
      <point x="285" y="389" type="curve" smooth="yes"/>
      <point x="452" y="389"/>
      <point x="530" y="310"/>
      <point x="530" y="190" type="curve" smooth="yes"/>
      <point x="530" y="70"/>
      <point x="452" y="-10"/>
      <point x="285" y="-10" type="curve" smooth="yes"/>
      <point x="118" y="-10"/>
      <point x="40" y="70"/>
    </contour>
  </outline>
</glyph>
<glyph name="question" format="2">
  <advance width="4512"/>
  <unicode hex="003F"/>
  <outline>
    <contour>
      <point x="1936" y="2824" type="line"/>
      <point x="2744" y="3048"/>
      <point x="3112" y="3736"/>
      <point x="3112" y="4480" type="curve" smooth="yes"/>
      <point x="3112" y="5232"/>
      <point x="2952" y="5944"/>
      <point x="2064" y="5944" type="curve" smooth="yes"/>
      <point x="1336" y="5944"/>
      <point x="768" y="5376"/>
      <point x="688" y="5008" type="curve"/>
      <point x="720" y="5056"/>
      <point x="832" y="5152"/>
      <point x="1008" y="5152" type="curve" smooth="yes"/>
      <point x="1288" y="5152"/>
      <point x="1552" y="4968"/>
      <point x="1552" y="4648" type="curve" smooth="yes"/>
      <point x="1552" y="4288"/>
      <point x="1280" y="4120"/>
      <point x="1016" y="4120" type="curve" smooth="yes"/>
      <point x="712" y="4120"/>
      <point x="480" y="4328"/>
      <point x="480" y="4696" type="curve" smooth="yes"/>
      <point x="480" y="5368"/>
      <point x="1232" y="6080"/>
      <point x="2192" y="6080" type="curve" smooth="yes"/>
      <point x="3352" y="6080"/>
      <point x="4112" y="5440"/>
      <point x="4112" y="4480" type="curve" smooth="yes"/>
      <point x="4112" y="3560"/>
      <point x="3256" y="2824"/>
      <point x="2048" y="2752" type="curve"/>
      <point x="2048" y="1784" type="line"/>
      <point x="1936" y="1784" type="line"/>
    </contour>
    <component base="period" xOffset="1160"/>
  </outline>
</glyph>
<glyph name="at" format="2">
  <advance width="8080"/>
  <unicode hex="0040"/>
  <outline>
    <contour>
      <point x="4880" y="2832" type="curve" smooth="yes"/>
      <point x="4880" y="1584"/>
      <point x="4200" y="560"/>
      <point x="3352" y="560" type="curve" smooth="yes"/>
      <point x="2696" y="560"/>
      <point x="2144" y="1008"/>
      <point x="2144" y="1840" type="curve" smooth="yes"/>
      <point x="2144" y="3040"/>
      <point x="3048" y="4232"/>
      <point x="4032" y="4232" type="curve" smooth="yes"/>
      <point x="4704" y="4232"/>
      <point x="4880" y="3488"/>
    </contour>
    <contour>
      <point x="4784" y="2768" type="curve" smooth="yes"/>
      <point x="4784" y="3104"/>
      <point x="4728" y="4000"/>
      <point x="4224" y="4000" type="curve" smooth="yes"/>
      <point x="3696" y="4000"/>
      <point x="3144" y="2864"/>
      <point x="3144" y="1872" type="curve" smooth="yes"/>
      <point x="3144" y="1336"/>
      <point x="3264" y="792"/>
      <point x="3664" y="792" type="curve" smooth="yes"/>
      <point x="4168" y="792"/>
      <point x="4784" y="1728"/>
    </contour>
    <contour>
      <point x="4608" y="1680" type="curve" smooth="yes"/>
      <point x="5184" y="4160" type="line"/>
      <point x="6096" y="4160" type="line"/>
      <point x="5520" y="1672" type="line" smooth="yes"/>
      <point x="5480" y="1512"/>
      <point x="5168" y="712"/>
      <point x="5728" y="712" type="curve" smooth="yes"/>
      <point x="6720" y="712"/>
      <point x="7528" y="1944"/>
      <point x="7528" y="3208" type="curve" smooth="yes"/>
      <point x="7528" y="4632"/>
      <point x="6648" y="6208"/>
      <point x="4672" y="6208" type="curve" smooth="yes"/>
      <point x="2408" y="6208"/>
      <point x="552" y="4136"/>
      <point x="552" y="1688" type="curve" smooth="yes"/>
      <point x="552" y="-736"/>
      <point x="1944" y="-1600"/>
      <point x="3352" y="-1600" type="curve" smooth="yes"/>
      <point x="4656" y="-1600"/>
      <point x="5496" y="-1216"/>
      <point x="6200" y="-432" type="curve"/>
      <point x="6280" y="-512" type="line"/>
      <point x="5608" y="-1296"/>
      <point x="4656" y="-1712"/>
      <point x="3352" y="-1712" type="curve" smooth="yes"/>
      <point x="1888" y="-1712"/>
      <point x="440" y="-824"/>
      <point x="440" y="1688" type="curve" smooth="yes"/>
      <point x="440" y="4192"/>
      <point x="2336" y="6320"/>
      <point x="4680" y="6320" type="curve" smooth="yes"/>
      <point x="6704" y="6320"/>
      <point x="7640" y="4672"/>
      <point x="7640" y="3208" type="curve" smooth="yes"/>
      <point x="7640" y="1912"/>
      <point x="6896" y="544"/>
      <point x="5480" y="544" type="curve" smooth="yes"/>
      <point x="4672" y="544"/>
      <point x="4496" y="1184"/>
    </contour>
  </outline>
</glyph>
<glyph name="A" format="2">
  <advance width="3107"/>
  <unicode hex="0041"/>
  <outline>
    <contour>
      <point x="77" y="57" type="line"/>
      <point x="978" y="57" type="line"/>
      <point x="978" y="0" type="line"/>
      <point x="77" y="0" type="line"/>
    </contour>
    <contour>
      <point x="1756" y="57" type="line"/>
      <point x="3046" y="57" type="line"/>
      <point x="3046" y="0" type="line"/>
      <point x="1756" y="0" type="line"/>
    </contour>
    <contour>
      <point x="791" y="1029" type="line"/>
      <point x="2125" y="1029" type="line"/>
      <point x="2125" y="975" type="line"/>
      <point x="791" y="975" type="line"/>
    </contour>
    <contour>
      <point x="1354" y="2506" type="line"/>
      <point x="482" y="0" type="line"/>
      <point x="413" y="0" type="line"/>
      <point x="1517" y="3133" type="line"/>
      <point x="1674" y="3133" type="line"/>
      <point x="2760" y="0" type="line"/>
      <point x="2166" y="0" type="line"/>
    </contour>
  </outline>
</glyph>
<glyph name="B" format="2">
  <advance width="2718"/>
  <unicode hex="0042"/>
  <outline>
    <contour>
      <point x="1367" y="1561" type="curve" smooth="yes"/>
      <point x="896" y="1561" type="line"/>
      <point x="896" y="1606" type="line"/>
      <point x="1326" y="1606" type="line" smooth="yes"/>
      <point x="1627" y="1606"/>
      <point x="1900" y="1786"/>
      <point x="1900" y="2273" type="curve" smooth="yes"/>
      <point x="1900" y="2760"/>
      <point x="1627" y="3015"/>
      <point x="1326" y="3015" type="curve" smooth="yes"/>
      <point x="77" y="3015" type="line"/>
      <point x="77" y="3072" type="line"/>
      <point x="1367" y="3072" type="line" smooth="yes"/>
      <point x="2016" y="3072"/>
      <point x="2432" y="2846"/>
      <point x="2432" y="2314" type="curve" smooth="yes"/>
      <point x="2432" y="1792"/>
      <point x="2057" y="1561"/>
    </contour>
    <contour>
      <point x="446" y="3072" type="line"/>
      <point x="958" y="3072" type="line"/>
      <point x="958" y="0" type="line"/>
      <point x="446" y="0" type="line"/>
    </contour>
    <contour>
      <point x="1449" y="0" type="curve" smooth="yes"/>
      <point x="77" y="0" type="line"/>
      <point x="77" y="57" type="line"/>
      <point x="1367" y="57" type="line" smooth="yes"/>
      <point x="1709" y="57"/>
      <point x="1982" y="373"/>
      <point x="1982" y="860" type="curve" smooth="yes"/>
      <point x="1982" y="1347"/>
      <point x="1709" y="1548"/>
      <point x="1367" y="1548" type="curve" smooth="yes"/>
      <point x="896" y="1548" type="line"/>
      <point x="896" y="1593" type="line"/>
      <point x="1449" y="1593" type="line" smooth="yes"/>
      <point x="2057" y="1593"/>
      <point x="2555" y="1392"/>
      <point x="2555" y="840" type="curve" smooth="yes"/>
      <point x="2555" y="236"/>
      <point x="2139" y="0"/>
    </contour>
  </outline>
</glyph>
<glyph name="C" format="2">
  <advance width="2810"/>
  <unicode hex="0043"/>
  <outline>
    <contour>
      <point x="2566" y="3072" type="line"/>
      <point x="2606" y="3072" type="line"/>
      <point x="2606" y="2201" type="line"/>
      <point x="2590" y="2298"/>
      <point x="2328" y="2780"/>
      <point x="2271" y="2837" type="curve"/>
    </contour>
    <contour>
      <point x="2606" y="2201" type="curve"/>
      <point x="2548" y="2201" type="line"/>
      <point x="2452" y="2695"/>
      <point x="2095" y="3036"/>
      <point x="1654" y="3036" type="curve" smooth="yes"/>
      <point x="992" y="3036"/>
      <point x="773" y="2281"/>
      <point x="773" y="1536" type="curve" smooth="yes"/>
      <point x="773" y="791"/>
      <point x="992" y="36"/>
      <point x="1654" y="36" type="curve" smooth="yes"/>
      <point x="2187" y="36"/>
      <point x="2498" y="417"/>
      <point x="2590" y="871" type="curve"/>
      <point x="2647" y="871" type="line"/>
      <point x="2585" y="347"/>
      <point x="2199" y="-41"/>
      <point x="1613" y="-41" type="curve" smooth="yes"/>
      <point x="741" y="-41"/>
      <point x="179" y="623"/>
      <point x="179" y="1536" type="curve" smooth="yes"/>
      <point x="179" y="2449"/>
      <point x="741" y="3113"/>
      <point x="1613" y="3113" type="curve" smooth="yes"/>
      <point x="2137" y="3113"/>
      <point x="2534" y="2725"/>
    </contour>
    <contour>
      <point x="2647" y="871" type="curve"/>
      <point x="2647" y="0" type="line"/>
      <point x="2606" y="0" type="line"/>
      <point x="2322" y="262" type="line"/>
      <point x="2377" y="317"/>
      <point x="2634" y="776"/>
    </contour>
  </outline>
</glyph>
<glyph name="D" format="2">
  <advance width="3037"/>
  <unicode hex="0044"/>
  <outline>
    <contour>
      <point x="466" y="3072" type="line"/>
      <point x="978" y="3072" type="line"/>
      <point x="978" y="0" type="line"/>
      <point x="466" y="0" type="line"/>
    </contour>
    <contour>
      <point x="1326" y="0" type="curve" smooth="yes"/>
      <point x="97" y="0" type="line"/>
      <point x="97" y="56" type="line"/>
      <point x="1326" y="56" type="line" smooth="yes"/>
      <point x="2018.5" y="56"/>
      <point x="2247.5" y="760.5"/>
      <point x="2247.5" y="1536" type="curve" smooth="yes"/>
      <point x="2247.5" y="2311.5"/>
      <point x="1977.5" y="3016"/>
      <point x="1326" y="3016" type="curve" smooth="yes"/>
      <point x="97" y="3016" type="line"/>
      <point x="97" y="3072" type="line"/>
      <point x="1326" y="3072" type="line" smooth="yes"/>
      <point x="2269.5" y="3072"/>
      <point x="2841.5" y="2428.5"/>
      <point x="2841.5" y="1536" type="curve" smooth="yes"/>
      <point x="2841.5" y="643.5"/>
      <point x="2229" y="0"/>
    </contour>
  </outline>
</glyph>
<glyph name="E" format="2">
  <advance width="601"/>
  <unicode hex="0045"/>
  <outline>
    <contour>
      <point x="558" y="225" type="curve"/>
      <point x="572" y="225" type="line"/>
      <point x="572" y="0" type="line"/>
      <point x="19" y="0" type="line"/>
      <point x="19" y="14" type="line"/>
      <point x="366" y="14" type="line" smooth="yes"/>
      <point x="503" y="14"/>
      <point x="552" y="98"/>
    </contour>
    <contour>
      <point x="109" y="750" type="line"/>
      <point x="228" y="750" type="line"/>
      <point x="228" y="0" type="line"/>
      <point x="109" y="0" type="line"/>
    </contour>
    <contour>
      <point x="19" y="750" type="line"/>
      <point x="562" y="750" type="line"/>
      <point x="562" y="545" type="line"/>
      <point x="548" y="545" type="line"/>
      <point x="542" y="652"/>
      <point x="493" y="736"/>
      <point x="376" y="736" type="curve" smooth="yes"/>
      <point x="19" y="736" type="line"/>
    </contour>
    <contour>
      <point x="384" y="272" type="line"/>
      <point x="378" y="339"/>
      <point x="335" y="381"/>
      <point x="278" y="381" type="curve" smooth="yes"/>
      <point x="202" y="381" type="line"/>
      <point x="202" y="395" type="line"/>
      <point x="278" y="395" type="line" smooth="yes"/>
      <point x="335" y="395"/>
      <point x="378" y="432"/>
      <point x="384" y="499" type="curve"/>
      <point x="398" y="499" type="line"/>
      <point x="398" y="272" type="line"/>
    </contour>
  </outline>
</glyph>
<glyph name="F" format="2">
  <advance width="2390"/>
  <unicode hex="0046"/>
  <outline>
    <contour>
      <point x="77" y="3072" type="line"/>
      <point x="2268" y="3072" type="line"/>
      <point x="2268" y="2232" type="line"/>
      <point x="2211" y="2232" type="line"/>
      <point x="2180" y="2670"/>
      <point x="1989" y="3015"/>
      <point x="1520" y="3015" type="curve" smooth="yes"/>
      <point x="77" y="3015" type="line"/>
    </contour>
    <contour>
      <point x="77" y="57" type="line"/>
      <point x="1367" y="57" type="line"/>
      <point x="1367" y="0" type="line"/>
      <point x="77" y="0" type="line"/>
    </contour>
    <contour>
      <point x="446" y="3072" type="line"/>
      <point x="958" y="3072" type="line"/>
      <point x="958" y="0" type="line"/>
      <point x="446" y="0" type="line"/>
    </contour>
    <contour>
      <point x="1617" y="1057" type="line"/>
      <point x="1586" y="1331"/>
      <point x="1437" y="1499"/>
      <point x="1101" y="1499" type="curve" smooth="yes"/>
      <point x="835" y="1499" type="line"/>
      <point x="835" y="1556" type="line"/>
      <point x="1101" y="1556" type="line" smooth="yes"/>
      <point x="1437" y="1556"/>
      <point x="1586" y="1704"/>
      <point x="1617" y="1978" type="curve"/>
      <point x="1674" y="1978" type="line"/>
      <point x="1674" y="1057" type="line"/>
    </contour>
  </outline>
</glyph>
<glyph name="G" format="2">
  <advance width="3015"/>
  <unicode hex="0047"/>
  <outline>
    <contour>
      <point x="2648" y="2201" type="line"/>
      <point x="2617" y="2353"/>
      <point x="2376" y="2776"/>
      <point x="2290" y="2850" type="curve"/>
      <point x="2606" y="3072" type="line"/>
      <point x="2648" y="3072" type="line"/>
    </contour>
    <contour>
      <point x="1766" y="1196" type="line"/>
      <point x="2975" y="1196" type="line"/>
      <point x="2975" y="1139" type="line"/>
      <point x="1766" y="1139" type="line"/>
    </contour>
    <contour>
      <point x="2196" y="1155" type="line"/>
      <point x="2750" y="1155" type="line"/>
      <point x="2750" y="656" type="line"/>
      <point x="2555" y="388"/>
      <point x="2240" y="-41"/>
      <point x="1572" y="-41" type="curve" smooth="yes"/>
      <point x="689" y="-41"/>
      <point x="179" y="602"/>
      <point x="179" y="1536" type="curve" smooth="yes"/>
      <point x="179" y="2470"/>
      <point x="802" y="3113"/>
      <point x="1633" y="3113" type="curve" smooth="yes"/>
      <point x="2157" y="3113"/>
      <point x="2630" y="2705"/>
      <point x="2648" y="2201" type="curve"/>
      <point x="2590" y="2201" type="line"/>
      <point x="2530" y="2651"/>
      <point x="2142" y="3035"/>
      <point x="1682" y="3035" type="curve" smooth="yes"/>
      <point x="1020" y="3035"/>
      <point x="773" y="2281"/>
      <point x="773" y="1536" type="curve" smooth="yes"/>
      <point x="773" y="791"/>
      <point x="931" y="22"/>
      <point x="1572" y="22" type="curve" smooth="yes"/>
      <point x="1998" y="22"/>
      <point x="2145" y="381"/>
      <point x="2196" y="512" type="curve"/>
    </contour>
  </outline>
</glyph>
<glyph name="H" format="2">
  <advance width="3127"/>
  <unicode hex="0048"/>
  <outline>
    <contour>
      <point x="876" y="1544" type="line"/>
      <point x="2268" y="1544" type="line"/>
      <point x="2268" y="1487" type="line"/>
      <point x="876" y="1487" type="line"/>
    </contour>
    <contour>
      <point x="1797" y="57" type="line"/>
      <point x="3067" y="57" type="line"/>
      <point x="3067" y="0" type="line"/>
      <point x="1797" y="0" type="line"/>
    </contour>
    <contour>
      <point x="77" y="57" type="line"/>
      <point x="1346" y="57" type="line"/>
      <point x="1346" y="0" type="line"/>
      <point x="77" y="0" type="line"/>
    </contour>
    <contour>
      <point x="1797" y="3072" type="line"/>
      <point x="3067" y="3072" type="line"/>
      <point x="3067" y="3015" type="line"/>
      <point x="1797" y="3015" type="line"/>
    </contour>
    <contour>
      <point x="77" y="3072" type="line"/>
      <point x="1346" y="3072" type="line"/>
      <point x="1346" y="3015" type="line"/>
      <point x="77" y="3015" type="line"/>
    </contour>
    <contour>
      <point x="2186" y="3072" type="line"/>
      <point x="2698" y="3072" type="line"/>
      <point x="2698" y="0" type="line"/>
      <point x="2186" y="0" type="line"/>
    </contour>
    <contour>
      <point x="446" y="3072" type="line"/>
      <point x="958" y="3072" type="line"/>
      <point x="958" y="0" type="line"/>
      <point x="446" y="0" type="line"/>
    </contour>
  </outline>
</glyph>
<glyph name="I" format="2">
  <advance width="1647"/>
  <unicode hex="0049"/>
  <outline>
    <contour>
      <point x="97" y="56" type="line"/>
      <point x="1551.5" y="56" type="line"/>
      <point x="1551.5" y="0" type="line"/>
      <point x="97" y="0" type="line"/>
    </contour>
    <contour>
      <point x="97" y="3072" type="line"/>
      <point x="1551.5" y="3072" type="line"/>
      <point x="1551.5" y="3016" type="line"/>
      <point x="97" y="3016" type="line"/>
    </contour>
    <contour>
      <point x="547.5" y="3072" type="line"/>
      <point x="1060" y="3072" type="line"/>
      <point x="1060" y="0" type="line"/>
      <point x="547.5" y="0" type="line"/>
    </contour>
  </outline>
</glyph>
<glyph name="J" format="2">
  <advance width="2030"/>
  <unicode hex="004A"/>
  <outline>
    <contour>
      <point x="479" y="3072" type="line"/>
      <point x="1934" y="3072" type="line"/>
      <point x="1934" y="3016" type="line"/>
      <point x="479" y="3016" type="line"/>
    </contour>
    <contour>
      <point x="1011.5" y="3072" type="line"/>
      <point x="1524" y="3072" type="line"/>
      <point x="1524" y="696" type="line"/>
      <point x="1401" y="357.5"/>
      <point x="1209" y="-123"/>
      <point x="669.5" y="-123" type="curve" smooth="yes"/>
      <point x="303" y="-123"/>
      <point x="87" y="125"/>
      <point x="87" y="381.5" type="curve" smooth="yes"/>
      <point x="87" y="584.5"/>
      <point x="227" y="709"/>
      <point x="391" y="709" type="curve" smooth="yes"/>
      <point x="534" y="709"/>
      <point x="682" y="605"/>
      <point x="682" y="406" type="curve" smooth="yes"/>
      <point x="682" y="234.5"/>
      <point x="545" y="119"/>
      <point x="390.5" y="119" type="curve" smooth="yes"/>
      <point x="313.5" y="119"/>
      <point x="247" y="137.5"/>
      <point x="219" y="152.5" type="curve"/>
      <point x="281" y="62.5"/>
      <point x="433" y="-65.5"/>
      <point x="655" y="-65.5" type="curve" smooth="yes"/>
      <point x="966" y="-65.5"/>
      <point x="1011.5" y="205"/>
      <point x="1011.5" y="778" type="curve" smooth="yes"/>
    </contour>
  </outline>
</glyph>
<glyph name="K" format="2">
  <advance width="2964"/>
  <unicode hex="004B"/>
  <outline>
    <contour>
      <point x="77" y="57" type="line"/>
      <point x="1346" y="57" type="line"/>
      <point x="1346" y="0" type="line"/>
      <point x="77" y="0" type="line"/>
    </contour>
    <contour>
      <point x="77" y="3072" type="line"/>
      <point x="1367" y="3072" type="line"/>
      <point x="1367" y="3015" type="line"/>
      <point x="77" y="3015" type="line"/>
    </contour>
    <contour>
      <point x="446" y="3072" type="line"/>
      <point x="958" y="3072" type="line"/>
      <point x="958" y="0" type="line"/>
      <point x="446" y="0" type="line"/>
    </contour>
    <contour>
      <point x="618" y="889" type="line"/>
      <point x="536" y="889" type="line"/>
      <point x="2272" y="3064" type="line"/>
      <point x="2355" y="3064" type="line"/>
    </contour>
    <contour>
      <point x="1572" y="57" type="line"/>
      <point x="2944" y="57" type="line"/>
      <point x="2944" y="0" type="line"/>
      <point x="1572" y="0" type="line"/>
    </contour>
    <contour>
      <point x="2759" y="3015" type="line"/>
      <point x="1776" y="3015" type="line"/>
      <point x="1776" y="3072" type="line"/>
      <point x="2759" y="3072" type="line"/>
    </contour>
    <contour>
      <point x="2624" y="0" type="line"/>
      <point x="2010" y="0" type="line"/>
      <point x="1120" y="1576" type="line"/>
      <point x="1460" y="1966" type="line"/>
    </contour>
  </outline>
</glyph>
<glyph name="L" format="2">
  <advance width="2492"/>
  <unicode hex="004C"/>
  <outline>
    <contour>
      <point x="466" y="3072" type="line"/>
      <point x="978" y="3072" type="line"/>
      <point x="978" y="0" type="line"/>
      <point x="466" y="0" type="line"/>
    </contour>
    <contour>
      <point x="97" y="3072" type="line"/>
      <point x="1346" y="3072" type="line"/>
      <point x="1346" y="3016" type="line"/>
      <point x="97" y="3016" type="line"/>
    </contour>
    <contour>
      <point x="2382.5" y="0" type="line"/>
      <point x="97" y="0" type="line"/>
      <point x="97" y="56" type="line"/>
      <point x="1505.5" y="56" type="line" smooth="yes"/>
      <point x="2128" y="56"/>
      <point x="2295.5" y="402"/>
      <point x="2326.5" y="922" type="curve"/>
      <point x="2382.5" y="922" type="line"/>
    </contour>
  </outline>
</glyph>
<glyph name="M" format="2">
  <advance width="847"/>
  <unicode hex="004D"/>
  <outline>
    <contour>
      <point x="833" y="750" type="line"/>
      <point x="833" y="736" type="line"/>
      <point x="763" y="736" type="line"/>
      <point x="763" y="0" type="line"/>
      <point x="644" y="0" type="line"/>
      <point x="644" y="750" type="line"/>
    </contour>
    <contour>
      <point x="24" y="14" type="line"/>
      <point x="182" y="14" type="line"/>
      <point x="182" y="0" type="line"/>
      <point x="24" y="0" type="line"/>
    </contour>
    <contour>
      <point x="564" y="14" type="line"/>
      <point x="833" y="14" type="line"/>
      <point x="833" y="0" type="line"/>
      <point x="564" y="0" type="line"/>
    </contour>
    <contour>
      <point x="434" y="164" type="line"/>
      <point x="636" y="750" type="line"/>
      <point x="651" y="750" type="line"/>
      <point x="390" y="-10" type="line"/>
      <point x="375" y="-10" type="line"/>
      <point x="97" y="750" type="line"/>
      <point x="217" y="750" type="line"/>
    </contour>
    <contour>
      <point x="95" y="736" type="line"/>
      <point x="19" y="736" type="line"/>
      <point x="19" y="750" type="line"/>
      <point x="110" y="750" type="line"/>
      <point x="110" y="0" type="line"/>
      <point x="95" y="0" type="line"/>
    </contour>
  </outline>
</glyph>
<glyph name="N" format="2">
  <advance width="3038"/>
  <unicode hex="004E"/>
  <outline>
    <contour>
      <point x="2486" y="3072" type="line"/>
      <point x="2548" y="3072" type="line"/>
      <point x="2548" y="-41" type="line"/>
      <point x="2453" y="-41" type="line"/>
      <point x="487" y="3072" type="line"/>
      <point x="1101" y="3072" type="line"/>
      <point x="2486" y="842" type="line"/>
    </contour>
    <contour>
      <point x="2026" y="3072" type="line"/>
      <point x="2978" y="3072" type="line"/>
      <point x="2978" y="3015" type="line"/>
      <point x="2026" y="3015" type="line"/>
    </contour>
    <contour>
      <point x="77" y="57" type="line"/>
      <point x="1035" y="57" type="line"/>
      <point x="1035" y="0" type="line"/>
      <point x="77" y="0" type="line"/>
    </contour>
    <contour>
      <point x="499" y="3015" type="line"/>
      <point x="77" y="3015" type="line"/>
      <point x="77" y="3072" type="line"/>
      <point x="560" y="3072" type="line"/>
      <point x="560" y="0" type="line"/>
      <point x="499" y="0" type="line"/>
    </contour>
  </outline>
</glyph>
<glyph name="O" format="2">
  <advance width="3045"/>
  <unicode hex="004F"/>
  <outline>
    <contour>
      <point x="1531" y="-41" type="curve" smooth="yes"/>
      <point x="679" y="-41"/>
      <point x="179" y="654"/>
      <point x="179" y="1536" type="curve" smooth="yes"/>
      <point x="179" y="2418"/>
      <point x="720" y="3113"/>
      <point x="1531" y="3113" type="curve" smooth="yes"/>
      <point x="2342" y="3113"/>
      <point x="2883" y="2418"/>
      <point x="2883" y="1536" type="curve" smooth="yes"/>
      <point x="2883" y="654"/>
      <point x="2383" y="-41"/>
    </contour>
    <contour>
      <point x="1531" y="3064" type="curve" smooth="yes"/>
      <point x="931" y="3064"/>
      <point x="773" y="2332"/>
      <point x="773" y="1536" type="curve" smooth="yes"/>
      <point x="773" y="740"/>
      <point x="890" y="8"/>
      <point x="1531" y="8" type="curve" smooth="yes"/>
      <point x="2172" y="8"/>
      <point x="2289" y="740"/>
      <point x="2289" y="1536" type="curve" smooth="yes"/>
      <point x="2289" y="2332"/>
      <point x="2131" y="3064"/>
    </contour>
  </outline>
</glyph>
<glyph name="P" format="2">
  <advance width="2689"/>
  <unicode hex="0050"/>
  <outline>
    <contour>
      <point x="466" y="3072" type="line"/>
      <point x="978" y="3072" type="line"/>
      <point x="978" y="0" type="line"/>
      <point x="466" y="0" type="line"/>
    </contour>
    <contour>
      <point x="97" y="56" type="line"/>
      <point x="1346" y="56" type="line"/>
      <point x="1346" y="0" type="line"/>
      <point x="97" y="0" type="line"/>
    </contour>
    <contour>
      <point x="1407.5" y="1351.5" type="curve" smooth="yes"/>
      <point x="844.5" y="1351.5" type="line"/>
      <point x="844.5" y="1407.5" type="line"/>
      <point x="1366.5" y="1407.5" type="line" smooth="yes"/>
      <point x="1739" y="1407.5"/>
      <point x="1930" y="1836.5"/>
      <point x="1930" y="2201.5" type="curve" smooth="yes"/>
      <point x="1930" y="2566.5"/>
      <point x="1739" y="3016"/>
      <point x="1366.5" y="3016" type="curve" smooth="yes"/>
      <point x="97" y="3016" type="line"/>
      <point x="97" y="3072" type="line"/>
      <point x="1407.5" y="3072" type="line" smooth="yes"/>
      <point x="2169" y="3072"/>
      <point x="2504" y="2733.5"/>
      <point x="2504" y="2201.5" type="curve" smooth="yes"/>
      <point x="2504" y="1669.5"/>
      <point x="2169" y="1351.5"/>
    </contour>
  </outline>
</glyph>
<glyph name="Q" format="2">
  <advance width="3045"/>
  <unicode hex="0051"/>
  <outline>
    <contour>
      <point x="1531" y="-41" type="curve" smooth="yes"/>
      <point x="679" y="-41"/>
      <point x="179" y="654"/>
      <point x="179" y="1536" type="curve" smooth="yes"/>
      <point x="179" y="2418"/>
      <point x="720" y="3113"/>
      <point x="1531" y="3113" type="curve" smooth="yes"/>
      <point x="2342" y="3113"/>
      <point x="2883" y="2418"/>
      <point x="2883" y="1536" type="curve" smooth="yes"/>
      <point x="2883" y="654"/>
      <point x="2383" y="-41"/>
    </contour>
    <contour>
      <point x="1531" y="3064" type="curve" smooth="yes"/>
      <point x="931" y="3064"/>
      <point x="773" y="2332"/>
      <point x="773" y="1536" type="curve" smooth="yes"/>
      <point x="773" y="740"/>
      <point x="890" y="8"/>
      <point x="1531" y="8" type="curve" smooth="yes"/>
      <point x="2172" y="8"/>
      <point x="2289" y="740"/>
      <point x="2289" y="1536" type="curve" smooth="yes"/>
      <point x="2289" y="2332"/>
      <point x="2131" y="3064"/>
    </contour>
    <contour>
      <point x="2288" y="-967" type="curve"/>
      <point x="2288" y="-1024" type="line"/>
      <point x="1344" y="-1024"/>
      <point x="1224" y="-753"/>
      <point x="1224" y="7" type="curve"/>
      <point x="1348" y="-21"/>
      <point x="1695" y="-21"/>
      <point x="1817" y="7" type="curve"/>
      <point x="1817" y="-738"/>
      <point x="1870" y="-967"/>
    </contour>
  </outline>
</glyph>
<glyph name="R" format="2">
  <advance width="713"/>
  <unicode hex="0052"/>
  <outline>
    <contour>
      <point x="357" y="383" type="curve" smooth="yes"/>
      <point x="199" y="383" type="line"/>
      <point x="199" y="392" type="line"/>
      <point x="347" y="392" type="line" smooth="yes"/>
      <point x="443" y="392"/>
      <point x="495" y="452"/>
      <point x="495" y="565" type="curve" smooth="yes"/>
      <point x="495" y="678"/>
      <point x="443" y="736"/>
      <point x="347" y="736" type="curve" smooth="yes"/>
      <point x="19" y="736" type="line"/>
      <point x="19" y="750" type="line"/>
      <point x="357" y="750" type="line" smooth="yes"/>
      <point x="514" y="750"/>
      <point x="619" y="695"/>
      <point x="619" y="565" type="curve" smooth="yes"/>
      <point x="619" y="435"/>
      <point x="524" y="383"/>
    </contour>
    <contour>
      <point x="19" y="14" type="line"/>
      <point x="350" y="14" type="line"/>
      <point x="350" y="0" type="line"/>
      <point x="19" y="0" type="line"/>
    </contour>
    <contour>
      <point x="125" y="750" type="line"/>
      <point x="244" y="750" type="line"/>
      <point x="244" y="0" type="line"/>
      <point x="125" y="0" type="line"/>
    </contour>
    <contour>
      <point x="704" y="11" type="line"/>
      <point x="688" y="2"/>
      <point x="649" y="-6"/>
      <point x="602" y="-6" type="curve" smooth="yes"/>
      <point x="353" y="-6"/>
      <point x="590" y="378"/>
      <point x="344" y="378" type="curve" smooth="yes"/>
      <point x="199" y="378" type="line"/>
      <point x="199" y="385" type="line"/>
      <point x="388" y="385" type="line" smooth="yes"/>
      <point x="725" y="385"/>
      <point x="525" y="13"/>
      <point x="648" y="13" type="curve" smooth="yes"/>
      <point x="669" y="13"/>
      <point x="686" y="18"/>
      <point x="700" y="24" type="curve"/>
    </contour>
  </outline>
</glyph>
<glyph name="S" format="2">
  <advance width="2369"/>
  <unicode hex="0053"/>
  <outline>
    <contour>
      <point x="2043" y="2232" type="curve"/>
      <point x="1986" y="2232" type="line"/>
      <point x="1863" y="2748"/>
      <point x="1555" y="3045"/>
      <point x="1136" y="3045" type="curve" smooth="yes"/>
      <point x="774" y="3045"/>
      <point x="578" y="2845"/>
      <point x="578" y="2541" type="curve" smooth="yes"/>
      <point x="578" y="1814"/>
      <point x="2207" y="1999"/>
      <point x="2207" y="850" type="curve" smooth="yes"/>
      <point x="2207" y="298"/>
      <point x="1802" y="-61"/>
      <point x="1224" y="-61" type="curve" smooth="yes"/>
      <point x="585" y="-61"/>
      <point x="308" y="368"/>
      <point x="179" y="860" type="curve"/>
      <point x="237" y="860" type="line"/>
      <point x="354" y="426"/>
      <point x="635" y="2"/>
      <point x="1190" y="2" type="curve" smooth="yes"/>
      <point x="1604" y="2"/>
      <point x="1861" y="235"/>
      <point x="1861" y="622" type="curve" smooth="yes"/>
      <point x="1861" y="1431"/>
      <point x="220" y="1198"/>
      <point x="220" y="2324" type="curve" smooth="yes"/>
      <point x="220" y="2806"/>
      <point x="634" y="3113"/>
      <point x="1099" y="3113" type="curve" smooth="yes"/>
      <point x="1592" y="3113"/>
      <point x="1920" y="2810"/>
    </contour>
    <contour>
      <point x="2002" y="3113" type="line"/>
      <point x="2043" y="3113" type="line"/>
      <point x="2043" y="2232" type="line"/>
      <point x="2017" y="2319"/>
      <point x="1785" y="2789"/>
      <point x="1728" y="2850" type="curve"/>
    </contour>
    <contour>
      <point x="220" y="-41" type="line"/>
      <point x="179" y="-41" type="line"/>
      <point x="179" y="860" type="line"/>
      <point x="215" y="756"/>
      <point x="446" y="298"/>
      <point x="495" y="242" type="curve"/>
    </contour>
  </outline>
</glyph>
<glyph name="T" format="2">
  <advance width="2767"/>
  <unicode hex="0054"/>
  <outline>
    <contour>
      <point x="678" y="56" type="line"/>
      <point x="2091" y="56" type="line"/>
      <point x="2091" y="0" type="line"/>
      <point x="678" y="0" type="line"/>
    </contour>
    <contour>
      <point x="1128" y="3054.5" type="line"/>
      <point x="1641" y="3054.5" type="line"/>
      <point x="1641" y="0" type="line"/>
      <point x="1128" y="0" type="line"/>
    </contour>
    <contour>
      <point x="1978.5" y="3016" type="curve" smooth="yes"/>
      <point x="790" y="3016" type="line" smooth="yes"/>
      <point x="331.5" y="3016"/>
      <point x="184.5" y="2639.5"/>
      <point x="153.5" y="2119.5" type="curve"/>
      <point x="97" y="2119.5" type="line"/>
      <point x="97" y="3072" type="line"/>
      <point x="2671" y="3072" type="line"/>
      <point x="2671" y="2119.5" type="line"/>
      <point x="2615" y="2119.5" type="line"/>
      <point x="2584" y="2639.5"/>
      <point x="2437" y="3016"/>
    </contour>
  </outline>
</glyph>
<glyph name="U" format="2">
  <advance width="2902"/>
  <unicode hex="0055"/>
  <outline>
    <contour>
      <point x="2043" y="3072" type="line"/>
      <point x="2842" y="3072" type="line"/>
      <point x="2842" y="3015" type="line"/>
      <point x="2043" y="3015" type="line"/>
    </contour>
    <contour>
      <point x="77" y="3072" type="line"/>
      <point x="1367" y="3072" type="line"/>
      <point x="1367" y="3015" type="line"/>
      <point x="77" y="3015" type="line"/>
    </contour>
    <contour>
      <point x="2403" y="3072" type="line"/>
      <point x="2460" y="3072" type="line"/>
      <point x="2460" y="942" type="line" smooth="yes"/>
      <point x="2460" y="266"/>
      <point x="2168" y="-61"/>
      <point x="1511" y="-61" type="curve" smooth="yes"/>
      <point x="771" y="-61"/>
      <point x="446" y="233"/>
      <point x="446" y="942" type="curve" smooth="yes"/>
      <point x="446" y="3072" type="line"/>
      <point x="958" y="3072" type="line"/>
      <point x="958" y="983" type="line" smooth="yes"/>
      <point x="958" y="442"/>
      <point x="1072" y="21"/>
      <point x="1631" y="21" type="curve" smooth="yes"/>
      <point x="2096" y="21"/>
      <point x="2403" y="302"/>
      <point x="2403" y="942" type="curve" smooth="yes"/>
    </contour>
  </outline>
</glyph>
<glyph name="V" format="2">
  <advance width="3177"/>
  <unicode hex="0056"/>
  <outline>
    <contour>
      <point x="3085.5" y="3016" type="line"/>
      <point x="2161" y="3016" type="line"/>
      <point x="2161" y="3072" type="line"/>
      <point x="3085.5" y="3072" type="line"/>
    </contour>
    <contour>
      <point x="1423.5" y="3016" type="line"/>
      <point x="92" y="3016" type="line"/>
      <point x="92" y="3072" type="line"/>
      <point x="1423.5" y="3072" type="line"/>
    </contour>
    <contour>
      <point x="1788.5" y="556" type="line"/>
      <point x="2684" y="3072" type="line"/>
      <point x="2750.5" y="3072" type="line"/>
      <point x="1628.5" y="-61" type="line"/>
      <point x="1465" y="-61" type="line"/>
      <point x="379" y="3072" type="line"/>
      <point x="972.5" y="3072" type="line"/>
    </contour>
  </outline>
</glyph>
<glyph name="W" format="2">
  <advance width="4307"/>
  <unicode hex="0057"/>
  <outline>
    <contour>
      <point x="2338" y="1941.5" type="line"/>
      <point x="1604.5" y="-45.5" type="line"/>
      <point x="1459.5" y="-41" type="line"/>
      <point x="411.5" y="3072" type="line"/>
      <point x="977.5" y="3072" type="line"/>
      <point x="1790" y="639" type="line"/>
      <point x="2303.5" y="2027.5" type="line"/>
    </contour>
    <contour>
      <point x="2499" y="1922" type="line"/>
      <point x="2452.5" y="1974.5" type="line"/>
      <point x="2839.5" y="3072" type="line"/>
      <point x="2904" y="3067.5" type="line"/>
    </contour>
    <contour>
      <point x="4240" y="3011.5" type="line"/>
      <point x="3430.5" y="3016" type="line"/>
      <point x="3430.5" y="3072" type="line"/>
      <point x="4240" y="3067.5" type="line"/>
    </contour>
    <contour>
      <point x="2161" y="3072" type="line"/>
      <point x="2970" y="639" type="line"/>
      <point x="3852.5" y="3072" type="line"/>
      <point x="3915" y="3067.5" type="line"/>
      <point x="2790" y="-45.5" type="line"/>
      <point x="2676.5" y="-41" type="line"/>
      <point x="1627.5" y="3072" type="line"/>
    </contour>
    <contour>
      <point x="3235.5" y="3016" type="line"/>
      <point x="68" y="3016" type="line"/>
      <point x="68" y="3072" type="line"/>
      <point x="3235.5" y="3072" type="line"/>
    </contour>
  </outline>
</glyph>
<glyph name="X" format="2">
  <advance width="3186"/>
  <unicode hex="0058"/>
  <outline>
    <contour>
      <point x="1623" y="1544" type="line"/>
      <point x="1547.5" y="1544" type="line"/>
      <point x="2492" y="3064" type="line"/>
      <point x="2558.5" y="3064" type="line"/>
    </contour>
    <contour>
      <point x="521.5" y="0" type="line"/>
      <point x="450" y="0" type="line"/>
      <point x="1566" y="1708" type="line"/>
      <point x="1636" y="1708" type="line"/>
    </contour>
    <contour>
      <point x="1828.5" y="56" type="line"/>
      <point x="3112" y="56" type="line"/>
      <point x="3112" y="0" type="line"/>
      <point x="1828.5" y="0" type="line"/>
    </contour>
    <contour>
      <point x="63.5" y="56" type="line"/>
      <point x="1038.5" y="56" type="line"/>
      <point x="1038.5" y="0" type="line"/>
      <point x="63.5" y="0" type="line"/>
    </contour>
    <contour>
      <point x="1476.5" y="3016" type="line"/>
      <point x="205.5" y="3016" type="line"/>
      <point x="205.5" y="3072" type="line"/>
      <point x="1476.5" y="3072" type="line"/>
    </contour>
    <contour>
      <point x="2886" y="3016" type="line"/>
      <point x="1992.5" y="3016" type="line"/>
      <point x="1992.5" y="3072" type="line"/>
      <point x="2886" y="3072" type="line"/>
    </contour>
    <contour>
      <point x="2848.5" y="0" type="line"/>
      <point x="2235" y="0" type="line"/>
      <point x="451.5" y="3072" type="line"/>
      <point x="1050.5" y="3072" type="line"/>
    </contour>
  </outline>
</glyph>
<glyph name="Y" format="2">
  <advance width="2964"/>
  <unicode hex="0059"/>
  <outline>
    <contour>
      <point x="2923" y="3015" type="line"/>
      <point x="2063" y="3015" type="line"/>
      <point x="2063" y="3072" type="line"/>
      <point x="2923" y="3072" type="line"/>
    </contour>
    <contour>
      <point x="1367" y="3015" type="line"/>
      <point x="56" y="3015" type="line"/>
      <point x="56" y="3072" type="line"/>
      <point x="1367" y="3072" type="line"/>
    </contour>
    <contour>
      <point x="906" y="57" type="line"/>
      <point x="2196" y="57" type="line"/>
      <point x="2196" y="0" type="line"/>
      <point x="906" y="0" type="line"/>
    </contour>
    <contour>
      <point x="1754" y="1635" type="line"/>
      <point x="2554" y="3064" type="line"/>
      <point x="2623" y="3064" type="line"/>
      <point x="1787" y="1569" type="line"/>
      <point x="1787" y="0" type="line"/>
      <point x="1275" y="0" type="line"/>
      <point x="1275" y="1475" type="line"/>
      <point x="315" y="3072" type="line"/>
      <point x="908" y="3072" type="line"/>
    </contour>
  </outline>
</glyph>
<glyph name="Z" format="2">
  <advance width="2410"/>
  <unicode hex="005A"/>
  <outline>
    <contour>
      <point x="138" y="3072" type="line"/>
      <point x="2227" y="3072" type="line"/>
      <point x="2227" y="3015" type="line"/>
      <point x="630" y="57" type="line"/>
      <point x="1469" y="57" type="line" smooth="yes"/>
      <point x="2030" y="57"/>
      <point x="2170" y="289"/>
      <point x="2211" y="809" type="curve"/>
      <point x="2268" y="809" type="line"/>
      <point x="2268" y="0" type="line"/>
      <point x="56" y="0" type="line"/>
      <point x="56" y="57" type="line"/>
      <point x="1654" y="3015" type="line"/>
      <point x="937" y="3015" type="line" smooth="yes"/>
      <point x="376" y="3015"/>
      <point x="237" y="2783"/>
      <point x="196" y="2345" type="curve"/>
      <point x="138" y="2345" type="line"/>
    </contour>
  </outline>
</glyph>
<glyph name="grave" format="2">
  <advance width="1647"/>
  <unicode hex="0060"/>
  <outline>
    <contour>
      <point x="430.5" y="2910.5" type="line" smooth="yes"/>
      <point x="322.5" y="2901"/>
      <point x="225.5" y="2983.5"/>
      <point x="225.5" y="3092" type="curve" smooth="yes"/>
      <point x="225.5" y="3200.5"/>
      <point x="334.5" y="3313"/>
      <point x="471.5" y="3269" type="curve" smooth="yes"/>
      <point x="1415.5" y="2986.5" type="line"/>
      <point x="1401.5" y="2935" type="line"/>
    </contour>
  </outline>
</glyph>
<glyph name="a" format="2">
  <advance width="2270"/>
  <unicode hex="0061"/>
  <outline>
    <contour>
      <point x="2259" y="258" type="line"/>
      <point x="2165" y="53"/>
      <point x="1973" y="-41"/>
      <point x="1766" y="-41" type="curve" smooth="yes"/>
      <point x="1542" y="-41"/>
      <point x="1337" y="45"/>
      <point x="1337" y="309" type="curve" smooth="yes"/>
      <point x="1337" y="1249" type="line" smooth="yes"/>
      <point x="1337" y="1543"/>
      <point x="1282" y="1848"/>
      <point x="964" y="1848" type="curve" smooth="yes"/>
      <point x="772" y="1848"/>
      <point x="624" y="1784"/>
      <point x="559" y="1722" type="curve"/>
      <point x="713" y="1751"/>
      <point x="866" y="1659"/>
      <point x="866" y="1497" type="curve" smooth="yes"/>
      <point x="866" y="1323"/>
      <point x="706" y="1233"/>
      <point x="573" y="1233" type="curve" smooth="yes"/>
      <point x="419" y="1233"/>
      <point x="309" y="1332"/>
      <point x="309" y="1489" type="curve" smooth="yes"/>
      <point x="309" y="1748"/>
      <point x="665" y="1917"/>
      <point x="1059" y="1917" type="curve" smooth="yes"/>
      <point x="1704" y="1917"/>
      <point x="1808" y="1601"/>
      <point x="1808" y="1249" type="curve" smooth="yes"/>
      <point x="1808" y="227" type="line" smooth="yes"/>
      <point x="1808" y="139"/>
      <point x="1862" y="78"/>
      <point x="1960" y="78" type="curve" smooth="yes"/>
      <point x="2033" y="78"/>
      <point x="2139" y="127"/>
      <point x="2218" y="279" type="curve"/>
    </contour>
    <contour>
      <point x="1063" y="1057" type="curve" smooth="yes"/>
      <point x="1550" y="1057" type="line"/>
      <point x="1550" y="999" type="line"/>
      <point x="1134" y="999" type="line" smooth="yes"/>
      <point x="854" y="999"/>
      <point x="686" y="783"/>
      <point x="686" y="517" type="curve" smooth="yes"/>
      <point x="686" y="285"/>
      <point x="773" y="116"/>
      <point x="955" y="116" type="curve" smooth="yes"/>
      <point x="1153" y="116"/>
      <point x="1337" y="293"/>
      <point x="1337" y="741" type="curve"/>
      <point x="1382" y="741" type="line"/>
      <point x="1382" y="233"/>
      <point x="1174" y="-41"/>
      <point x="719" y="-41" type="curve" smooth="yes"/>
      <point x="395" y="-41"/>
      <point x="166" y="160"/>
      <point x="166" y="463" type="curve" smooth="yes"/>
      <point x="166" y="807"/>
      <point x="469" y="1057"/>
    </contour>
  </outline>
</glyph>
<glyph name="b" format="2">
  <advance width="4808"/>
  <unicode hex="0062"/>
  <outline>
    <contour>
      <point x="1504" y="1840" type="curve" smooth="yes"/>
      <point x="1504" y="3056"/>
      <point x="1976" y="3752"/>
      <point x="2832" y="3752" type="curve" smooth="yes"/>
      <point x="3704" y="3752"/>
      <point x="4528" y="3040"/>
      <point x="4528" y="1840" type="curve" smooth="yes"/>
      <point x="4528" y="640"/>
      <point x="3704" y="-80"/>
      <point x="2832" y="-80" type="curve" smooth="yes"/>
      <point x="1976" y="-80"/>
      <point x="1504" y="624"/>
    </contour>
    <contour>
      <point x="1584" y="1840" type="curve" smooth="yes"/>
      <point x="1584" y="672"/>
      <point x="2096" y="104"/>
      <point x="2632" y="104" type="curve" smooth="yes"/>
      <point x="3224" y="104"/>
      <point x="3512" y="736"/>
      <point x="3512" y="1840" type="curve" smooth="yes"/>
      <point x="3512" y="2944"/>
      <point x="3224" y="3568"/>
      <point x="2632" y="3568" type="curve" smooth="yes"/>
      <point x="2096" y="3568"/>
      <point x="1584" y="3008"/>
    </contour>
    <contour>
      <point x="704" y="5888" type="line"/>
      <point x="168" y="5888" type="line"/>
      <point x="168" y="6000" type="line"/>
      <point x="1584" y="6000" type="line"/>
      <point x="1584" y="0" type="line"/>
      <point x="168" y="0" type="line"/>
      <point x="168" y="112" type="line"/>
      <point x="704" y="112" type="line"/>
    </contour>
  </outline>
</glyph>
<glyph name="c" format="2">
  <advance width="4000"/>
  <unicode hex="0063"/>
  <outline>
    <contour>
      <point x="3352" y="3064" type="curve"/>
      <point x="3256" y="3360"/>
      <point x="2840" y="3640"/>
      <point x="2328" y="3640" type="curve" smooth="yes"/>
      <point x="1456" y="3640"/>
      <point x="1320" y="2592"/>
      <point x="1320" y="1840" type="curve" smooth="yes"/>
      <point x="1320" y="928"/>
      <point x="1512" y="64"/>
      <point x="2312" y="64" type="curve" smooth="yes"/>
      <point x="2944" y="64"/>
      <point x="3336" y="520"/>
      <point x="3544" y="1144" type="curve"/>
      <point x="3664" y="1144" type="line"/>
      <point x="3456" y="448"/>
      <point x="3016" y="-80"/>
      <point x="2176" y="-80" type="curve" smooth="yes"/>
      <point x="1080" y="-80"/>
      <point x="288" y="608"/>
      <point x="288" y="1840" type="curve" smooth="yes"/>
      <point x="288" y="2912"/>
      <point x="968" y="3760"/>
      <point x="2224" y="3760" type="curve" smooth="yes"/>
      <point x="3056" y="3760"/>
      <point x="3624" y="3296"/>
      <point x="3624" y="2704" type="curve" smooth="yes"/>
      <point x="3624" y="2344"/>
      <point x="3384" y="2152"/>
      <point x="3096" y="2152" type="curve" smooth="yes"/>
      <point x="2848" y="2152"/>
      <point x="2560" y="2296"/>
      <point x="2560" y="2672" type="curve" smooth="yes"/>
      <point x="2560" y="3000"/>
      <point x="2824" y="3176"/>
      <point x="3072" y="3176" type="curve" smooth="yes"/>
      <point x="3216" y="3176"/>
      <point x="3312" y="3112"/>
    </contour>
  </outline>
</glyph>
<glyph name="d" format="2">
  <advance width="601"/>
  <unicode hex="0064"/>
  <outline>
    <contour>
      <point x="415" y="230" type="curve" smooth="yes"/>
      <point x="415" y="78"/>
      <point x="355" y="-10"/>
      <point x="248" y="-10" type="curve" smooth="yes"/>
      <point x="139" y="-10"/>
      <point x="36" y="80"/>
      <point x="36" y="230" type="curve" smooth="yes"/>
      <point x="36" y="380"/>
      <point x="139" y="469"/>
      <point x="248" y="469" type="curve" smooth="yes"/>
      <point x="355" y="469"/>
      <point x="415" y="382"/>
    </contour>
    <contour>
      <point x="404" y="230" type="curve" smooth="yes"/>
      <point x="404" y="378"/>
      <point x="339" y="446"/>
      <point x="273" y="446" type="curve" smooth="yes"/>
      <point x="199" y="446"/>
      <point x="163" y="369"/>
      <point x="163" y="230" type="curve" smooth="yes"/>
      <point x="163" y="91"/>
      <point x="200" y="14"/>
      <point x="274" y="14" type="curve" smooth="yes"/>
      <point x="340" y="14"/>
      <point x="404" y="82"/>
    </contour>
    <contour>
      <point x="582" y="14" type="line"/>
      <point x="582" y="0" type="line"/>
      <point x="404" y="0" type="line"/>
      <point x="404" y="736" type="line"/>
      <point x="337" y="736" type="line"/>
      <point x="337" y="750" type="line"/>
      <point x="514" y="750" type="line"/>
      <point x="514" y="14" type="line"/>
    </contour>
  </outline>
</glyph>
<glyph name="e" format="2">
  <advance width="515"/>
  <unicode hex="0065"/>
  <outline>
    <contour>
      <point x="103" y="254" type="line"/>
      <point x="103" y="268" type="line"/>
      <point x="360" y="268" type="line"/>
      <point x="360" y="344"/>
      <point x="350" y="456"/>
      <point x="271" y="456" type="curve" smooth="yes"/>
      <point x="184" y="456"/>
      <point x="161" y="348"/>
      <point x="161" y="234" type="curve" smooth="yes"/>
      <point x="161" y="114"/>
      <point x="187" y="6"/>
      <point x="290" y="6" type="curve" smooth="yes"/>
      <point x="382" y="6"/>
      <point x="446" y="66"/>
      <point x="471" y="143" type="curve"/>
      <point x="484" y="143" type="line"/>
      <point x="458" y="56"/>
      <point x="389" y="-10"/>
      <point x="274" y="-10" type="curve" smooth="yes"/>
      <point x="139" y="-10"/>
      <point x="36" y="78"/>
      <point x="36" y="230" type="curve" smooth="yes"/>
      <point x="36" y="382"/>
      <point x="136" y="470"/>
      <point x="271" y="470" type="curve" smooth="yes"/>
      <point x="420" y="470"/>
      <point x="483" y="363"/>
      <point x="483" y="254" type="curve"/>
    </contour>
  </outline>
</glyph>
<glyph name="f" format="2">
  <advance width="1529"/>
  <unicode hex="0066"/>
  <outline>
    <contour>
      <point x="64" y="57" type="line"/>
      <point x="1363" y="57" type="line"/>
      <point x="1363" y="0" type="line"/>
      <point x="64" y="0" type="line"/>
    </contour>
    <contour>
      <point x="64" y="1884" type="line"/>
      <point x="1445" y="1884" type="line"/>
      <point x="1445" y="1827" type="line"/>
      <point x="64" y="1827" type="line"/>
    </contour>
    <contour>
      <point x="1724" y="2851" type="curve"/>
      <point x="1684" y="2937"/>
      <point x="1576" y="3056"/>
      <point x="1329" y="3056" type="curve" smooth="yes"/>
      <point x="1001" y="3056"/>
      <point x="884" y="2732"/>
      <point x="884" y="2212" type="curve" smooth="yes"/>
      <point x="884" y="0" type="line"/>
      <point x="423" y="0" type="line"/>
      <point x="423" y="2097" type="line" smooth="yes"/>
      <point x="423" y="2654"/>
      <point x="759" y="3113"/>
      <point x="1322" y="3113" type="curve" smooth="yes"/>
      <point x="1664" y="3113"/>
      <point x="1857" y="2889"/>
      <point x="1857" y="2676" type="curve" smooth="yes"/>
      <point x="1857" y="2488"/>
      <point x="1736" y="2382"/>
      <point x="1582" y="2382" type="curve" smooth="yes"/>
      <point x="1449" y="2382"/>
      <point x="1302" y="2465"/>
      <point x="1302" y="2647" type="curve" smooth="yes"/>
      <point x="1302" y="2825"/>
      <point x="1432" y="2917"/>
      <point x="1586" y="2917" type="curve" smooth="yes"/>
      <point x="1650" y="2917"/>
      <point x="1707" y="2890"/>
    </contour>
  </outline>
</glyph>
<glyph name="g" format="2">
  <advance width="2436"/>
  <unicode hex="0067"/>
  <outline>
    <contour>
      <point x="215" y="296" type="curve" smooth="yes"/>
      <point x="215" y="612"/>
      <point x="665" y="711"/>
      <point x="1032" y="711" type="curve"/>
      <point x="1028" y="685" type="line"/>
      <point x="852" y="685"/>
      <point x="535" y="619"/>
      <point x="535" y="454" type="curve" smooth="yes"/>
      <point x="535" y="318"/>
      <point x="717" y="314"/>
      <point x="942" y="314" type="curve" smooth="yes"/>
      <point x="1085" y="314"/>
      <point x="1149" y="318"/>
      <point x="1264" y="318" type="curve" smooth="yes"/>
      <point x="1571" y="318"/>
      <point x="1927" y="221"/>
      <point x="1927" y="-336" type="curve" smooth="yes"/>
      <point x="1927" y="-832"/>
      <point x="1518" y="-1065"/>
      <point x="1016" y="-1065" type="curve" smooth="yes"/>
      <point x="543" y="-1065"/>
      <point x="84" y="-911"/>
      <point x="84" y="-526" type="curve" smooth="yes"/>
      <point x="84" y="-157"/>
      <point x="496" y="-53"/>
      <point x="680" y="-53" type="curve" smooth="yes"/>
      <point x="708" y="-53" type="line"/>
      <point x="544" y="-143"/>
      <point x="524" y="-315"/>
      <point x="524" y="-425" type="curve" smooth="yes"/>
      <point x="524" y="-724"/>
      <point x="682" y="-998"/>
      <point x="1054" y="-998" type="curve" smooth="yes"/>
      <point x="1438" y="-998"/>
      <point x="1758" y="-830"/>
      <point x="1758" y="-459" type="curve" smooth="yes"/>
      <point x="1758" y="-216"/>
      <point x="1548" y="-88"/>
      <point x="1282" y="-88" type="curve" smooth="yes"/>
      <point x="1186" y="-88"/>
      <point x="967" y="-88"/>
      <point x="877" y="-88" type="curve" smooth="yes"/>
      <point x="508" y="-88"/>
      <point x="215" y="11"/>
    </contour>
    <contour>
      <point x="678" y="1290" type="curve" smooth="yes"/>
      <point x="678" y="966"/>
      <point x="698" y="719"/>
      <point x="971" y="719" type="curve" smooth="yes"/>
      <point x="1172" y="719"/>
      <point x="1264" y="966"/>
      <point x="1264" y="1290" type="curve" smooth="yes"/>
      <point x="1264" y="1614"/>
      <point x="1172" y="1868"/>
      <point x="971" y="1868" type="curve" smooth="yes"/>
      <point x="770" y="1868"/>
      <point x="678" y="1614"/>
    </contour>
    <contour>
      <point x="187" y="1290" type="curve" smooth="yes"/>
      <point x="187" y="1741"/>
      <point x="608" y="1925"/>
      <point x="971" y="1925" type="curve" smooth="yes"/>
      <point x="1334" y="1925"/>
      <point x="1755" y="1741"/>
      <point x="1755" y="1290" type="curve" smooth="yes"/>
      <point x="1755" y="839"/>
      <point x="1334" y="662"/>
      <point x="971" y="662" type="curve" smooth="yes"/>
      <point x="608" y="662"/>
      <point x="187" y="839"/>
    </contour>
    <contour>
      <point x="2274" y="1699" type="curve"/>
      <point x="2243" y="1789"/>
      <point x="2155" y="1847"/>
      <point x="2017" y="1847" type="curve" smooth="yes"/>
      <point x="1842" y="1847"/>
      <point x="1618" y="1745"/>
      <point x="1536" y="1389" type="curve"/>
      <point x="1490" y="1421" type="line"/>
      <point x="1572" y="1794"/>
      <point x="1833" y="1905"/>
      <point x="2017" y="1905" type="curve" smooth="yes"/>
      <point x="2257" y="1905"/>
      <point x="2377" y="1744"/>
      <point x="2377" y="1588" type="curve" smooth="yes"/>
      <point x="2377" y="1384"/>
      <point x="2254" y="1317"/>
      <point x="2142" y="1317" type="curve" smooth="yes"/>
      <point x="2030" y="1317"/>
      <point x="1912" y="1391"/>
      <point x="1912" y="1547" type="curve" smooth="yes"/>
      <point x="1912" y="1672"/>
      <point x="2004" y="1765"/>
      <point x="2134" y="1765" type="curve" smooth="yes"/>
      <point x="2203" y="1765"/>
      <point x="2257" y="1733"/>
    </contour>
  </outline>
</glyph>
<glyph name="h" format="2">
  <advance width="591"/>
  <unicode hex="0068"/>
  <outline>
    <contour>
      <point x="394" y="310" type="line" smooth="yes"/>
      <point x="394" y="394"/>
      <point x="377" y="441"/>
      <point x="327" y="441" type="curve" smooth="yes"/>
      <point x="228" y="441"/>
      <point x="198" y="321"/>
      <point x="198" y="223" type="curve"/>
      <point x="188" y="221" type="line"/>
      <point x="188" y="321"/>
      <point x="209" y="470"/>
      <point x="362" y="470" type="curve" smooth="yes"/>
      <point x="477" y="470"/>
      <point x="504" y="406"/>
      <point x="504" y="319" type="curve" smooth="yes"/>
      <point x="504" y="0" type="line"/>
      <point x="394" y="0" type="line"/>
    </contour>
    <contour>
      <point x="332" y="14" type="line"/>
      <point x="571" y="14" type="line"/>
      <point x="571" y="0" type="line"/>
      <point x="332" y="0" type="line"/>
    </contour>
    <contour>
      <point x="21" y="14" type="line"/>
      <point x="260" y="14" type="line"/>
      <point x="260" y="0" type="line"/>
      <point x="21" y="0" type="line"/>
    </contour>
    <contour>
      <point x="88" y="736" type="line"/>
      <point x="21" y="736" type="line"/>
      <point x="21" y="750" type="line"/>
      <point x="198" y="750" type="line"/>
      <point x="198" y="0" type="line"/>
      <point x="88" y="0" type="line"/>
    </contour>
  </outline>
</glyph>
<glyph name="i" format="2">
  <advance width="1216"/>
  <unicode hex="0069"/>
  <outline>
    <contour>
      <point x="105" y="57" type="line"/>
      <point x="1127" y="57" type="line"/>
      <point x="1127" y="0" type="line"/>
      <point x="105" y="0" type="line"/>
    </contour>
    <contour>
      <point x="280" y="2816" type="curve" smooth="yes"/>
      <point x="280" y="2982"/>
      <point x="410" y="3113"/>
      <point x="576" y="3113" type="curve" smooth="yes"/>
      <point x="742" y="3113"/>
      <point x="873" y="2982"/>
      <point x="873" y="2816" type="curve" smooth="yes"/>
      <point x="873" y="2650"/>
      <point x="742" y="2519"/>
      <point x="576" y="2519" type="curve" smooth="yes"/>
      <point x="410" y="2519"/>
      <point x="280" y="2650"/>
    </contour>
    <contour>
      <point x="382" y="1827" type="line"/>
      <point x="105" y="1827" type="line"/>
      <point x="105" y="1884" type="line"/>
      <point x="853" y="1884" type="line"/>
      <point x="853" y="0" type="line"/>
      <point x="382" y="0" type="line"/>
    </contour>
  </outline>
</glyph>
<glyph name="j" format="2">
  <advance width="1228"/>
  <unicode hex="006A"/>
  <outline>
    <contour>
      <point x="349" y="2816" type="curve" smooth="yes"/>
      <point x="349" y="2982"/>
      <point x="480" y="3113"/>
      <point x="646" y="3113" type="curve" smooth="yes"/>
      <point x="812" y="3113"/>
      <point x="943" y="2982"/>
      <point x="943" y="2816" type="curve" smooth="yes"/>
      <point x="943" y="2650"/>
      <point x="812" y="2519"/>
      <point x="646" y="2519" type="curve" smooth="yes"/>
      <point x="480" y="2519"/>
      <point x="349" y="2650"/>
    </contour>
    <contour>
      <point x="914" y="1884" type="line"/>
      <point x="914" y="-49" type="line" smooth="yes"/>
      <point x="914" y="-586"/>
      <point x="700" y="-1065"/>
      <point x="148" y="-1065" type="curve" smooth="yes"/>
      <point x="-204" y="-1065"/>
      <point x="-417" y="-853"/>
      <point x="-417" y="-601" type="curve" smooth="yes"/>
      <point x="-417" y="-413"/>
      <point x="-282" y="-304"/>
      <point x="-132" y="-304" type="curve" smooth="yes"/>
      <point x="1" y="-304"/>
      <point x="148" y="-382"/>
      <point x="148" y="-566" type="curve" smooth="yes"/>
      <point x="148" y="-745"/>
      <point x="16" y="-836"/>
      <point x="-159" y="-836" type="curve" smooth="yes"/>
      <point x="-217" y="-836"/>
      <point x="-266" y="-798"/>
      <point x="-271" y="-762" type="curve"/>
      <point x="-262" y="-863"/>
      <point x="-109" y="-1002"/>
      <point x="116" y="-1002" type="curve" smooth="yes"/>
      <point x="516" y="-1002"/>
      <point x="442" y="-437"/>
      <point x="442" y="83" type="curve" smooth="yes"/>
      <point x="444" y="1827" type="line"/>
      <point x="84" y="1827" type="line"/>
      <point x="84" y="1884" type="line"/>
    </contour>
  </outline>
</glyph>
<glyph name="k" format="2">
  <advance width="2550"/>
  <unicode hex="006B"/>
  <outline>
    <contour>
      <point x="2314.5" y="0" type="line"/>
      <point x="1736" y="0" type="line"/>
      <point x="871.5" y="1083.5" type="line"/>
      <point x="1940" y="1884" type="line"/>
      <point x="2021" y="1884" type="line"/>
      <point x="1264" y="1300.5" type="line"/>
    </contour>
    <contour>
      <point x="1428.5" y="56" type="line"/>
      <point x="2470.5" y="56" type="line"/>
      <point x="2470.5" y="0" type="line"/>
      <point x="1428.5" y="0" type="line"/>
    </contour>
    <contour>
      <point x="2300" y="1828" type="line"/>
      <point x="1427.5" y="1828" type="line"/>
      <point x="1427.5" y="1884" type="line"/>
      <point x="2300" y="1884" type="line"/>
    </contour>
    <contour>
      <point x="121.5" y="56" type="line"/>
      <point x="1195.5" y="56" type="line"/>
      <point x="1195.5" y="0" type="line"/>
      <point x="121.5" y="0" type="line"/>
    </contour>
    <contour>
      <point x="469.5" y="3016" type="line"/>
      <point x="121.5" y="3016" type="line"/>
      <point x="121.5" y="3072" type="line"/>
      <point x="940" y="3072" type="line"/>
      <point x="940" y="0" type="line"/>
      <point x="469.5" y="0" type="line"/>
    </contour>
  </outline>
</glyph>
<glyph name="l" format="2">
  <advance width="326"/>
  <unicode hex="006C"/>
  <outline>
    <contour>
      <point x="21" y="14" type="line"/>
      <point x="305" y="14" type="line"/>
      <point x="305" y="0" type="line"/>
      <point x="21" y="0" type="line"/>
    </contour>
    <contour>
      <point x="108" y="736" type="line"/>
      <point x="21" y="736" type="line"/>
      <point x="21" y="750" type="line"/>
      <point x="218" y="750" type="line"/>
      <point x="218" y="0" type="line"/>
      <point x="108" y="0" type="line"/>
    </contour>
  </outline>
</glyph>
<glyph name="m" format="2">
  <advance width="3525"/>
  <unicode hex="006D"/>
  <outline>
    <contour>
      <point x="2000" y="1307" type="curve" smooth="yes"/>
      <point x="2000" y="0" type="line"/>
      <point x="1529" y="0" type="line"/>
      <point x="1529" y="1269" type="line" smooth="yes"/>
      <point x="1529" y="1613"/>
      <point x="1492" y="1806"/>
      <point x="1301" y="1806" type="curve" smooth="yes"/>
      <point x="959" y="1806"/>
      <point x="832" y="1320"/>
      <point x="832" y="913" type="curve"/>
      <point x="788" y="907" type="line"/>
      <point x="788" y="1319"/>
      <point x="873" y="1925"/>
      <point x="1453" y="1925" type="curve" smooth="yes"/>
      <point x="1860" y="1925"/>
      <point x="2000" y="1663"/>
    </contour>
    <contour>
      <point x="84" y="57" type="line"/>
      <point x="1072" y="57" type="line"/>
      <point x="1072" y="0" type="line"/>
      <point x="84" y="0" type="line"/>
    </contour>
    <contour>
      <point x="1288" y="57" type="line"/>
      <point x="2238" y="57" type="line"/>
      <point x="2238" y="0" type="line"/>
      <point x="1288" y="0" type="line"/>
    </contour>
    <contour>
      <point x="2454" y="57" type="line"/>
      <point x="3442" y="57" type="line"/>
      <point x="3442" y="0" type="line"/>
      <point x="2454" y="0" type="line"/>
    </contour>
    <contour>
      <point x="362" y="1827" type="line"/>
      <point x="84" y="1827" type="line"/>
      <point x="84" y="1884" type="line"/>
      <point x="832" y="1884" type="line"/>
      <point x="832" y="0" type="line"/>
      <point x="362" y="0" type="line"/>
    </contour>
    <contour>
      <point x="3167" y="1307" type="curve" smooth="yes"/>
      <point x="3167" y="0" type="line"/>
      <point x="2696" y="0" type="line"/>
      <point x="2696" y="1269" type="line" smooth="yes"/>
      <point x="2696" y="1613"/>
      <point x="2641" y="1806"/>
      <point x="2449" y="1806" type="curve" smooth="yes"/>
      <point x="2095" y="1806"/>
      <point x="2000" y="1320"/>
      <point x="2000" y="913" type="curve"/>
      <point x="1950" y="907" type="line"/>
      <point x="1950" y="1319"/>
      <point x="1993" y="1925"/>
      <point x="2598" y="1925" type="curve" smooth="yes"/>
      <point x="3005" y="1925"/>
      <point x="3167" y="1663"/>
    </contour>
  </outline>
</glyph>
<glyph name="n" format="2">
  <advance width="4728"/>
  <unicode hex="006E"/>
  <outline>
    <contour>
      <point x="3152" y="2480" type="line" smooth="yes"/>
      <point x="3152" y="3152"/>
      <point x="3016" y="3528"/>
      <point x="2616" y="3528" type="curve" smooth="yes"/>
      <point x="1872" y="3528"/>
      <point x="1584" y="2568"/>
      <point x="1584" y="1784" type="curve"/>
      <point x="1504" y="1768" type="line"/>
      <point x="1504" y="2568"/>
      <point x="1720" y="3760"/>
      <point x="2896" y="3760" type="curve" smooth="yes"/>
      <point x="3776" y="3760"/>
      <point x="4032" y="3248"/>
      <point x="4032" y="2552" type="curve" smooth="yes"/>
      <point x="4032" y="0" type="line"/>
      <point x="3152" y="0" type="line"/>
    </contour>
    <contour>
      <point x="2656" y="112" type="line"/>
      <point x="4568" y="112" type="line"/>
      <point x="4568" y="0" type="line"/>
      <point x="2656" y="0" type="line"/>
    </contour>
    <contour>
      <point x="168" y="112" type="line"/>
      <point x="2080" y="112" type="line"/>
      <point x="2080" y="0" type="line"/>
      <point x="168" y="0" type="line"/>
    </contour>
    <contour>
      <point x="704" y="3568" type="line"/>
      <point x="168" y="3568" type="line"/>
      <point x="168" y="3680" type="line"/>
      <point x="1584" y="3680" type="line"/>
      <point x="1584" y="0" type="line"/>
      <point x="704" y="0" type="line"/>
    </contour>
  </outline>
</glyph>
<glyph name="o" format="2">
  <advance width="2228"/>
  <unicode hex="006F"/>
  <outline>
    <contour>
      <point x="668" y="942" type="curve" smooth="yes"/>
      <point x="668" y="506"/>
      <point x="740" y="16"/>
      <point x="1114" y="16" type="curve" smooth="yes"/>
      <point x="1488" y="16"/>
      <point x="1561" y="506"/>
      <point x="1561" y="942" type="curve" smooth="yes"/>
      <point x="1561" y="1378"/>
      <point x="1488" y="1868"/>
      <point x="1114" y="1868" type="curve" smooth="yes"/>
      <point x="740" y="1868"/>
      <point x="668" y="1378"/>
    </contour>
    <contour>
      <point x="146" y="942" type="curve" smooth="yes"/>
      <point x="146" y="1474"/>
      <point x="516" y="1925"/>
      <point x="1114" y="1925" type="curve" smooth="yes"/>
      <point x="1712" y="1925"/>
      <point x="2083" y="1474"/>
      <point x="2083" y="942" type="curve" smooth="yes"/>
      <point x="2083" y="410"/>
      <point x="1712" y="-41"/>
      <point x="1114" y="-41" type="curve" smooth="yes"/>
      <point x="516" y="-41"/>
      <point x="146" y="410"/>
    </contour>
  </outline>
</glyph>
<glyph name="p" format="2">
  <advance width="4808"/>
  <unicode hex="0070"/>
  <outline>
    <contour>
      <point x="1504" y="1840" type="curve" smooth="yes"/>
      <point x="1504" y="3056"/>
      <point x="1976" y="3752"/>
      <point x="2832" y="3752" type="curve" smooth="yes"/>
      <point x="3704" y="3752"/>
      <point x="4528" y="3040"/>
      <point x="4528" y="1840" type="curve" smooth="yes"/>
      <point x="4528" y="640"/>
      <point x="3704" y="-80"/>
      <point x="2832" y="-80" type="curve" smooth="yes"/>
      <point x="1976" y="-80"/>
      <point x="1504" y="624"/>
    </contour>
    <contour>
      <point x="1584" y="1840" type="curve" smooth="yes"/>
      <point x="1584" y="656"/>
      <point x="2112" y="104"/>
      <point x="2632" y="104" type="curve" smooth="yes"/>
      <point x="3232" y="104"/>
      <point x="3512" y="752"/>
      <point x="3512" y="1840" type="curve" smooth="yes"/>
      <point x="3512" y="2928"/>
      <point x="3232" y="3568"/>
      <point x="2632" y="3568" type="curve" smooth="yes"/>
      <point x="2104" y="3568"/>
      <point x="1584" y="3024"/>
    </contour>
    <contour>
      <point x="168" y="-1888" type="line"/>
      <point x="2120" y="-1888" type="line"/>
      <point x="2120" y="-2000" type="line"/>
      <point x="168" y="-2000" type="line"/>
    </contour>
    <contour>
      <point x="704" y="3568" type="line"/>
      <point x="168" y="3568" type="line"/>
      <point x="168" y="3680" type="line"/>
      <point x="1584" y="3680" type="line"/>
      <point x="1584" y="-2000" type="line"/>
      <point x="704" y="-2000" type="line"/>
    </contour>
  </outline>
</glyph>
<glyph name="q" format="2">
  <advance width="2482"/>
  <unicode hex="0071"/>
  <outline>
    <contour>
      <point x="1698" y="942" type="curve" smooth="yes"/>
      <point x="1698" y="319"/>
      <point x="1454" y="-41"/>
      <point x="1014" y="-41" type="curve" smooth="yes"/>
      <point x="568" y="-41"/>
      <point x="146" y="328"/>
      <point x="146" y="942" type="curve" smooth="yes"/>
      <point x="146" y="1556"/>
      <point x="568" y="1921"/>
      <point x="1014" y="1921" type="curve" smooth="yes"/>
      <point x="1453" y="1921"/>
      <point x="1698" y="1565"/>
    </contour>
    <contour>
      <point x="1653" y="942" type="curve" smooth="yes"/>
      <point x="1653" y="1548"/>
      <point x="1385" y="1825"/>
      <point x="1122" y="1825" type="curve" smooth="yes"/>
      <point x="829" y="1825"/>
      <point x="688" y="1498"/>
      <point x="688" y="942" type="curve" smooth="yes"/>
      <point x="688" y="386"/>
      <point x="829" y="62"/>
      <point x="1122" y="62" type="curve" smooth="yes"/>
      <point x="1398" y="62"/>
      <point x="1653" y="336"/>
    </contour>
    <contour>
      <point x="2401" y="-967" type="line"/>
      <point x="2401" y="-1024" type="line"/>
      <point x="1378" y="-1024" type="line"/>
      <point x="1378" y="-967" type="line"/>
    </contour>
    <contour>
      <point x="2401" y="1884" type="line"/>
      <point x="2401" y="1827" type="line"/>
      <point x="2124" y="1827" type="line"/>
      <point x="2124" y="-1024" type="line"/>
      <point x="1653" y="-1024" type="line"/>
      <point x="1653" y="1884" type="line"/>
    </contour>
  </outline>
</glyph>
<glyph name="r" format="2">
  <advance width="1899"/>
  <unicode hex="0072"/>
  <outline>
    <contour>
      <point x="1676.5" y="1745.5" type="curve"/>
      <point x="1608.5" y="1829.5"/>
      <point x="1503" y="1866.5"/>
      <point x="1397" y="1866.5" type="curve" smooth="yes"/>
      <point x="1000" y="1866.5"/>
      <point x="853.5" y="1336.5"/>
      <point x="853.5" y="896" type="curve"/>
      <point x="808.5" y="896" type="line"/>
      <point x="808.5" y="1383.5"/>
      <point x="940.5" y="1925"/>
      <point x="1403.5" y="1925" type="curve" smooth="yes"/>
      <point x="1622" y="1925"/>
      <point x="1812" y="1771"/>
      <point x="1812" y="1555" type="curve" smooth="yes"/>
      <point x="1812" y="1390.5"/>
      <point x="1707.5" y="1253.5"/>
      <point x="1526" y="1253.5" type="curve" smooth="yes"/>
      <point x="1360.5" y="1253.5"/>
      <point x="1234.5" y="1354.5"/>
      <point x="1234.5" y="1524.5" type="curve" smooth="yes"/>
      <point x="1234.5" y="1734"/>
      <point x="1469.5" y="1865"/>
    </contour>
    <contour>
      <point x="121.5" y="56" type="line"/>
      <point x="1132.5" y="56" type="line"/>
      <point x="1132.5" y="0" type="line"/>
      <point x="121.5" y="0" type="line"/>
    </contour>
    <contour>
      <point x="387.5" y="1828" type="line"/>
      <point x="121.5" y="1828" type="line"/>
      <point x="121.5" y="1884" type="line"/>
      <point x="853.5" y="1884" type="line"/>
      <point x="853.5" y="0" type="line"/>
      <point x="387.5" y="0" type="line"/>
    </contour>
  </outline>
</glyph>
<glyph name="s" format="2">
  <advance width="3472"/>
  <unicode hex="0073"/>
  <outline>
    <contour>
      <point x="2808" y="2984" type="curve"/>
      <point x="2784" y="3032"/>
      <point x="2520" y="3328"/>
      <point x="2480" y="3368" type="curve"/>
      <point x="2880" y="3760" type="line"/>
      <point x="2960" y="3760" type="line"/>
      <point x="2960" y="2640" type="line"/>
      <point x="2856" y="2640" type="line"/>
      <point x="2848" y="2688"/>
      <point x="2832" y="2944"/>
    </contour>
    <contour>
      <point x="2936" y="2640" type="curve"/>
      <point x="2856" y="2640" type="line"/>
      <point x="2752" y="3096"/>
      <point x="2288" y="3632"/>
      <point x="1600" y="3632" type="curve" smooth="yes"/>
      <point x="1248" y="3632"/>
      <point x="848" y="3448"/>
      <point x="848" y="3056" type="curve" smooth="yes"/>
      <point x="848" y="2240"/>
      <point x="3224" y="2608"/>
      <point x="3224" y="1152" type="curve" smooth="yes"/>
      <point x="3224" y="392"/>
      <point x="2584" y="-80"/>
      <point x="1824" y="-80" type="curve" smooth="yes"/>
      <point x="1056" y="-80"/>
      <point x="456" y="416"/>
      <point x="352" y="1088" type="curve"/>
      <point x="440" y="1088" type="line"/>
      <point x="608" y="504"/>
      <point x="1136" y="40"/>
      <point x="1760" y="40" type="curve" smooth="yes"/>
      <point x="2232" y="40"/>
      <point x="2696" y="232"/>
      <point x="2696" y="704" type="curve" smooth="yes"/>
      <point x="2696" y="1640"/>
      <point x="424" y="1128"/>
      <point x="424" y="2648" type="curve" smooth="yes"/>
      <point x="424" y="3208"/>
      <point x="832" y="3752"/>
      <point x="1592" y="3752" type="curve" smooth="yes"/>
      <point x="2376" y="3752"/>
      <point x="2872" y="3168"/>
    </contour>
    <contour>
      <point x="416" y="-80" type="line"/>
      <point x="328" y="-80" type="line"/>
      <point x="328" y="1088" type="line"/>
      <point x="440" y="1088" type="line"/>
      <point x="448" y="1008"/>
      <point x="480" y="808"/>
      <point x="496" y="768" type="curve"/>
      <point x="536" y="704"/>
      <point x="792" y="360"/>
      <point x="816" y="336" type="curve"/>
    </contour>
  </outline>
</glyph>
<glyph name="t" format="2">
  <advance width="2696"/>
  <unicode hex="0074"/>
  <outline>
    <contour>
      <point x="88" y="3680" type="line"/>
      <point x="2408" y="3680" type="line"/>
      <point x="2408" y="3568" type="line"/>
      <point x="88" y="3568" type="line"/>
    </contour>
    <contour>
      <point x="2648" y="816" type="line"/>
      <point x="2456" y="304"/>
      <point x="2032" y="-56"/>
      <point x="1480" y="-56" type="curve" smooth="yes"/>
      <point x="776" y="-56"/>
      <point x="672" y="416"/>
      <point x="672" y="904" type="curve" smooth="yes"/>
      <point x="672" y="4480" type="line"/>
      <point x="960" y="4480"/>
      <point x="1344" y="4584"/>
      <point x="1552" y="4720" type="curve"/>
      <point x="1552" y="712" type="line" smooth="yes"/>
      <point x="1552" y="312"/>
      <point x="1640" y="192"/>
      <point x="1856" y="192" type="curve" smooth="yes"/>
      <point x="2104" y="192"/>
      <point x="2400" y="480"/>
      <point x="2552" y="856" type="curve"/>
    </contour>
  </outline>
</glyph>
<glyph name="u" format="2">
  <advance width="2494"/>
  <unicode hex="0075"/>
  <outline>
    <contour>
      <point x="858" y="1884" type="line"/>
      <point x="858" y="622.5" type="line" smooth="yes"/>
      <point x="858" y="278.5"/>
      <point x="895" y="72"/>
      <point x="1093" y="72" type="curve" smooth="yes"/>
      <point x="1465" y="72"/>
      <point x="1635.5" y="609"/>
      <point x="1635.5" y="968" type="curve"/>
      <point x="1677.5" y="974" type="line"/>
      <point x="1677.5" y="590"/>
      <point x="1545" y="-41"/>
      <point x="965" y="-41" type="curve" smooth="yes"/>
      <point x="500.5" y="-41"/>
      <point x="387.5" y="222"/>
      <point x="387.5" y="578" type="curve" smooth="yes"/>
      <point x="387.5" y="1828" type="line"/>
      <point x="121.5" y="1828" type="line"/>
      <point x="121.5" y="1884" type="line"/>
    </contour>
    <contour>
      <point x="2108" y="56" type="line"/>
      <point x="2374.5" y="56" type="line"/>
      <point x="2374.5" y="0" type="line"/>
      <point x="1635.5" y="0" type="line"/>
      <point x="1635.5" y="1828" type="line"/>
      <point x="1360" y="1828" type="line"/>
      <point x="1360" y="1884" type="line"/>
      <point x="2108" y="1884" type="line"/>
    </contour>
  </outline>
</glyph>
<glyph name="v" format="2">
  <advance width="4416"/>
  <unicode hex="0076"/>
  <outline>
    <contour>
      <point x="4392" y="3568" type="line"/>
      <point x="2880" y="3568" type="line"/>
      <point x="2880" y="3680" type="line"/>
      <point x="4392" y="3680" type="line"/>
    </contour>
    <contour>
      <point x="2184" y="3568" type="line"/>
      <point x="8" y="3568" type="line"/>
      <point x="8" y="3680" type="line"/>
      <point x="2184" y="3680" type="line"/>
    </contour>
    <contour>
      <point x="2544" y="880" type="line"/>
      <point x="3664" y="3680" type="line"/>
      <point x="3816" y="3680" type="line"/>
      <point x="2296" y="-80" type="line"/>
      <point x="2056" y="-80" type="line"/>
      <point x="512" y="3680" type="line"/>
      <point x="1488" y="3680" type="line"/>
    </contour>
  </outline>
</glyph>
<glyph name="w" format="2">
  <advance width="3231"/>
  <unicode hex="0077"/>
  <outline>
    <contour>
      <point x="1124" y="1827" type="line"/>
      <point x="4" y="1827" type="line"/>
      <point x="4" y="1884" type="line"/>
      <point x="1124" y="1884" type="line"/>
    </contour>
    <contour>
      <point x="3218" y="1827" type="line"/>
      <point x="2363" y="1827" type="line"/>
      <point x="2363" y="1884" type="line"/>
      <point x="3218" y="1884" type="line"/>
    </contour>
    <contour>
      <point x="1171" y="490" type="line"/>
      <point x="1750" y="1925" type="line"/>
      <point x="1940" y="1925" type="line"/>
      <point x="2364" y="562" type="line"/>
      <point x="2801" y="1884" type="line"/>
      <point x="2874" y="1884" type="line"/>
      <point x="2231" y="-41" type="line"/>
      <point x="2090" y="-41" type="line"/>
      <point x="1594" y="1359" type="line"/>
      <point x="1030" y="-41" type="line"/>
      <point x="888" y="-41" type="line"/>
      <point x="261" y="1884" type="line"/>
      <point x="758" y="1884" type="line"/>
    </contour>
  </outline>
</glyph>
<glyph name="x" format="2">
  <advance width="4488"/>
  <unicode hex="0078"/>
  <outline>
    <contour>
      <point x="2448" y="112" type="line"/>
      <point x="4400" y="112" type="line"/>
      <point x="4400" y="0" type="line"/>
      <point x="2448" y="0" type="line"/>
    </contour>
    <contour>
      <point x="88" y="112" type="line"/>
      <point x="1600" y="112" type="line"/>
      <point x="1600" y="0" type="line"/>
      <point x="88" y="0" type="line"/>
    </contour>
    <contour>
      <point x="2224" y="3568" type="line"/>
      <point x="152" y="3568" type="line"/>
      <point x="152" y="3680" type="line"/>
      <point x="2224" y="3680" type="line"/>
    </contour>
    <contour>
      <point x="4288" y="3568" type="line"/>
      <point x="2840" y="3568" type="line"/>
      <point x="2840" y="3680" type="line"/>
      <point x="4288" y="3680" type="line"/>
    </contour>
    <contour>
      <point x="4064" y="0" type="line"/>
      <point x="3008" y="0" type="line"/>
      <point x="576" y="3680" type="line"/>
      <point x="1616" y="3680" type="line"/>
    </contour>
    <contour>
      <point x="696" y="0" type="line"/>
      <point x="544" y="0" type="line"/>
      <point x="3608" y="3680" type="line"/>
      <point x="3760" y="3680" type="line"/>
    </contour>
  </outline>
</glyph>
<glyph name="y" format="2">
  <advance width="4520"/>
  <unicode hex="0079"/>
  <outline>
    <contour>
      <point x="2208" y="3568" type="line"/>
      <point x="-8" y="3568" type="line"/>
      <point x="-8" y="3680" type="line"/>
      <point x="2208" y="3680" type="line"/>
    </contour>
    <contour>
      <point x="4592" y="3568" type="line"/>
      <point x="3168" y="3568" type="line"/>
      <point x="3168" y="3680" type="line"/>
      <point x="4592" y="3680" type="line"/>
    </contour>
    <contour>
      <point x="2824" y="864" type="line"/>
      <point x="2320" y="-160" type="line"/>
      <point x="440" y="3680" type="line"/>
      <point x="1448" y="3680" type="line"/>
    </contour>
    <contour>
      <point x="1672" y="-1504" type="curve"/>
      <point x="3968" y="3680" type="line"/>
      <point x="4120" y="3680" type="line"/>
      <point x="1792" y="-1560" type="line" smooth="yes"/>
      <point x="1640" y="-1888"/>
      <point x="1480" y="-2096"/>
      <point x="1160" y="-2096" type="curve" smooth="yes"/>
      <point x="912" y="-2096"/>
      <point x="640" y="-1928"/>
      <point x="640" y="-1592" type="curve" smooth="yes"/>
      <point x="640" y="-1296"/>
      <point x="856" y="-1072"/>
      <point x="1160" y="-1072" type="curve" smooth="yes"/>
      <point x="1432" y="-1072"/>
      <point x="1640" y="-1264"/>
    </contour>
  </outline>
</glyph>
<glyph name="z" format="2">
  <advance width="3664"/>
  <unicode hex="007A"/>
  <outline>
    <contour>
      <point x="1584" y="3568" type="line" smooth="yes"/>
      <point x="736" y="3568"/>
      <point x="512" y="3112"/>
      <point x="464" y="2304" type="curve"/>
      <point x="352" y="2304" type="line"/>
      <point x="352" y="3680" type="line"/>
      <point x="3368" y="3680" type="line"/>
      <point x="3368" y="3568" type="line"/>
      <point x="1152" y="112" type="line"/>
      <point x="2080" y="112" type="line" smooth="yes"/>
      <point x="3112" y="112"/>
      <point x="3344" y="480"/>
      <point x="3392" y="1472" type="curve"/>
      <point x="3496" y="1472" type="line"/>
      <point x="3496" y="0" type="line"/>
      <point x="128" y="0" type="line"/>
      <point x="128" y="112" type="line"/>
      <point x="2336" y="3568" type="line"/>
    </contour>
  </outline>
</glyph>
<glyph name="braceleft" format="2">
  <advance width="1236"/>
  <unicode hex="007B"/>
  <outline>
    <contour>
      <point x="1113.5" y="3194.5" type="curve"/>
      <point x="1113.5" y="3139" type="line"/>
      <point x="859.5" y="3139"/>
      <point x="729" y="2908"/>
      <point x="729" y="2650" type="curve" smooth="yes"/>
      <point x="729" y="2359.5"/>
      <point x="867.5" y="2185"/>
      <point x="867.5" y="1795.5" type="curve" smooth="yes"/>
      <point x="867.5" y="1455.5"/>
      <point x="651" y="1365"/>
      <point x="225.5" y="1283" type="curve"/>
      <point x="225.5" y="1320" type="line"/>
      <point x="348" y="1360.5"/>
      <point x="471.5" y="1454"/>
      <point x="471.5" y="1622" type="curve" smooth="yes"/>
      <point x="471.5" y="1880"/>
      <point x="225.5" y="2065"/>
      <point x="225.5" y="2605.5" type="curve" smooth="yes"/>
      <point x="225.5" y="2991"/>
      <point x="427.5" y="3194.5"/>
    </contour>
    <contour>
      <point x="1113.5" y="-614" type="line"/>
      <point x="427.5" y="-614"/>
      <point x="225.5" y="-406"/>
      <point x="225.5" y="-20.5" type="curve" smooth="yes"/>
      <point x="225.5" y="520"/>
      <point x="471.5" y="704.5"/>
      <point x="471.5" y="962.5" type="curve" smooth="yes"/>
      <point x="471.5" y="1130.5"/>
      <point x="348" y="1221.5"/>
      <point x="225.5" y="1262" type="curve"/>
      <point x="225.5" y="1300" type="line"/>
      <point x="651" y="1218"/>
      <point x="867.5" y="1128.5"/>
      <point x="867.5" y="788.5" type="curve" smooth="yes"/>
      <point x="867.5" y="399"/>
      <point x="729" y="224.5"/>
      <point x="729" y="-66" type="curve" smooth="yes"/>
      <point x="729" y="-324"/>
      <point x="859.5" y="-558"/>
      <point x="1113.5" y="-558" type="curve"/>
    </contour>
  </outline>
</glyph>
<glyph name="bar" format="2">
  <advance width="964"/>
  <unicode hex="007C"/>
  <outline>
    <contour>
      <point x="454" y="3194.5" type="line"/>
      <point x="511" y="3194.5" type="line"/>
      <point x="511" y="-1024" type="line"/>
      <point x="454" y="-1024" type="line"/>
    </contour>
  </outline>
</glyph>
<glyph name="cent" format="2">
  <advance width="500"/>
  <unicode hex="00A2"/>
  <outline>
    <contour>
      <point x="283" y="555" type="line"/>
      <point x="283" y="-85" type="line"/>
      <point x="269" y="-85" type="line"/>
      <point x="269" y="555" type="line"/>
    </contour>
    <component base="c"/>
  </outline>
</glyph>
<glyph name="sterling" format="2">
  <advance width="2623"/>
  <unicode hex="00A3"/>
  <outline>
    <contour>
      <point x="2527.5" y="766" type="line"/>
      <point x="2527.5" y="69.5"/>
      <point x="2215.5" y="-123"/>
      <point x="1799.5" y="-123" type="curve" smooth="yes"/>
      <point x="1238.5" y="-123"/>
      <point x="1024" y="123"/>
      <point x="766" y="123" type="curve" smooth="yes"/>
      <point x="598" y="123"/>
      <point x="394" y="41"/>
      <point x="353" y="-82" type="curve"/>
      <point x="321" y="-82" type="line"/>
      <point x="393" y="221"/>
      <point x="640.5" y="520"/>
      <point x="1011.5" y="520" type="curve" smooth="yes"/>
      <point x="1401" y="520"/>
      <point x="1568.5" y="381"/>
      <point x="1859" y="381" type="curve" smooth="yes"/>
      <point x="2124" y="381"/>
      <point x="2471.5" y="430"/>
      <point x="2471.5" y="766" type="curve"/>
    </contour>
    <contour>
      <point x="1905" y="1655.5" type="line"/>
      <point x="1905" y="1599" type="line"/>
      <point x="61" y="1599" type="line"/>
      <point x="61" y="1655.5" type="line"/>
    </contour>
    <contour>
      <point x="442" y="2253" type="curve" smooth="yes"/>
      <point x="442" y="2826"/>
      <point x="883.5" y="3113"/>
      <point x="1573" y="3113" type="curve" smooth="yes"/>
      <point x="2237" y="3113"/>
      <point x="2548" y="2751.5"/>
      <point x="2548" y="2415.5" type="curve" smooth="yes"/>
      <point x="2548" y="2216.5"/>
      <point x="2412" y="2095"/>
      <point x="2253.5" y="2095" type="curve" smooth="yes"/>
      <point x="2110.5" y="2095"/>
      <point x="1950" y="2191.5"/>
      <point x="1950" y="2386.5" type="curve" smooth="yes"/>
      <point x="1950" y="2560"/>
      <point x="2095" y="2673"/>
      <point x="2244.5" y="2673" type="curve" smooth="yes"/>
      <point x="2337" y="2673"/>
      <point x="2397.5" y="2619"/>
      <point x="2419.5" y="2596" type="curve"/>
      <point x="2387.5" y="2770.5"/>
      <point x="2141.5" y="3045.5"/>
      <point x="1654" y="3045.5" type="curve" smooth="yes"/>
      <point x="1156.5" y="3045.5"/>
      <point x="1020" y="2668.5"/>
      <point x="1020" y="2345" type="curve" smooth="yes"/>
      <point x="1020" y="1939"/>
      <point x="1249" y="1710"/>
      <point x="1249" y="1382.5" type="curve" smooth="yes"/>
      <point x="1249" y="635"/>
      <point x="299" y="624.5"/>
      <point x="352" y="-82" type="curve"/>
      <point x="295" y="-82" type="line"/>
      <point x="217" y="487"/>
      <point x="774" y="807"/>
      <point x="774" y="1069" type="curve" smooth="yes"/>
      <point x="774" y="1536"/>
      <point x="442" y="1782"/>
    </contour>
  </outline>
</glyph>
<glyph name="section" format="2">
  <advance width="1890"/>
  <unicode hex="00A7"/>
  <outline>
    <contour>
      <point x="492" y="2653" type="curve" smooth="yes"/>
      <point x="492" y="2188"/>
      <point x="1750" y="2209"/>
      <point x="1750" y="1582" type="curve" smooth="yes"/>
      <point x="1750" y="1308"/>
      <point x="1527" y="1188"/>
      <point x="1316" y="1051" type="curve"/>
      <point x="1256" y="1070" type="line"/>
      <point x="1342" y="1152"/>
      <point x="1433" y="1224"/>
      <point x="1433" y="1355" type="curve" smooth="yes"/>
      <point x="1433" y="1851"/>
      <point x="264" y="1725"/>
      <point x="264" y="2470" type="curve" smooth="yes"/>
      <point x="264" y="2896"/>
      <point x="628" y="3113"/>
      <point x="976" y="3113" type="curve" smooth="yes"/>
      <point x="1326" y="3113"/>
      <point x="1709" y="2958"/>
      <point x="1709" y="2524" type="curve" smooth="yes"/>
      <point x="1709" y="2346"/>
      <point x="1597" y="2209"/>
      <point x="1433" y="2209" type="curve" smooth="yes"/>
      <point x="1289" y="2209"/>
      <point x="1181" y="2312"/>
      <point x="1181" y="2469" type="curve" smooth="yes"/>
      <point x="1181" y="2610"/>
      <point x="1305" y="2722"/>
      <point x="1445" y="2722" type="curve" smooth="yes"/>
      <point x="1505" y="2722"/>
      <point x="1566" y="2691"/>
      <point x="1586" y="2680" type="curve"/>
      <point x="1524" y="2889"/>
      <point x="1288" y="3036"/>
      <point x="976" y="3036" type="curve" smooth="yes"/>
      <point x="729" y="3036"/>
      <point x="492" y="2878"/>
    </contour>
    <contour>
      <point x="1732" y="664" type="curve" smooth="yes"/>
      <point x="1732" y="238"/>
      <point x="1400" y="-41"/>
      <point x="908" y="-41" type="curve" smooth="yes"/>
      <point x="548" y="-41"/>
      <point x="123" y="104"/>
      <point x="123" y="558" type="curve" smooth="yes"/>
      <point x="123" y="736"/>
      <point x="236" y="872"/>
      <point x="400" y="872" type="curve" smooth="yes"/>
      <point x="544" y="872"/>
      <point x="652" y="769"/>
      <point x="652" y="612" type="curve" smooth="yes"/>
      <point x="652" y="471"/>
      <point x="529" y="364"/>
      <point x="389" y="364" type="curve" smooth="yes"/>
      <point x="325" y="364"/>
      <point x="264" y="397"/>
      <point x="247" y="408" type="curve"/>
      <point x="319" y="160"/>
      <point x="612" y="36"/>
      <point x="908" y="36" type="curve" smooth="yes"/>
      <point x="1310" y="36"/>
      <point x="1458" y="249"/>
      <point x="1458" y="434" type="curve" smooth="yes"/>
      <point x="1458" y="899"/>
      <point x="176" y="848"/>
      <point x="176" y="1444" type="curve" smooth="yes"/>
      <point x="176" y="1749"/>
      <point x="419" y="1932"/>
      <point x="568" y="2038" type="curve"/>
      <point x="639" y="2038" type="line"/>
      <point x="616" y="1989"/>
      <point x="526" y="1880"/>
      <point x="526" y="1722" type="curve" smooth="yes"/>
      <point x="526" y="1226"/>
      <point x="1732" y="1409"/>
    </contour>
  </outline>
</glyph>
<glyph name="guillemotleft" format="2">
  <advance width="2907"/>
  <unicode hex="00AB"/>
  <outline>
    <contour>
      <point x="1888" y="1589" type="line"/>
      <point x="2691" y="623" type="line"/>
      <point x="2662" y="594" type="line"/>
      <point x="1249" y="1540" type="line"/>
      <point x="1249" y="1634" type="line"/>
      <point x="2662" y="2580" type="line"/>
      <point x="2691" y="2552" type="line"/>
    </contour>
    <contour>
      <point x="720" y="1589" type="line"/>
      <point x="1544" y="623" type="line"/>
      <point x="1516" y="594" type="line"/>
      <point x="102" y="1540" type="line"/>
      <point x="102" y="1634" type="line"/>
      <point x="1516" y="2580" type="line"/>
      <point x="1544" y="2552" type="line"/>
    </contour>
  </outline>
</glyph>
<glyph name="logicalnot" format="2">
  <advance width="486"/>
  <unicode hex="00AC"/>
  <outline>
    <contour>
      <point x="412" y="601" type="line"/>
      <point x="60" y="601" type="line"/>
      <point x="60" y="615" type="line"/>
      <point x="426" y="615" type="line"/>
      <point x="426" y="413" type="line"/>
      <point x="412" y="413" type="line"/>
    </contour>
  </outline>
</glyph>
<glyph name="mu" format="2">
  <advance width="2414"/>
  <unicode hex="00B5"/>
  <outline>
    <contour>
      <point x="1071" y="-504" type="curve" smooth="yes"/>
      <point x="1206" y="-504"/>
      <point x="1313" y="-622"/>
      <point x="1313" y="-778" type="curve" smooth="yes"/>
      <point x="1313" y="-938"/>
      <point x="1227" y="-1065"/>
      <point x="928" y="-1065" type="curve" smooth="yes"/>
      <point x="641" y="-1065"/>
      <point x="396" y="-865"/>
      <point x="396" y="-496" type="curve" smooth="yes"/>
      <point x="396" y="1315" type="line"/>
      <point x="452" y="1315" type="line"/>
      <point x="452" y="-496" type="line" smooth="yes"/>
      <point x="452" y="-840"/>
      <point x="665" y="-1016"/>
      <point x="968" y="-1016" type="curve"/>
      <point x="968" y="-1016" type="line"/>
      <point x="862" y="-942"/>
      <point x="828" y="-839"/>
      <point x="828" y="-737" type="curve" smooth="yes"/>
      <point x="828" y="-602"/>
      <point x="936" y="-504"/>
    </contour>
    <component base="u"/>
  </outline>
</glyph>
<glyph name="cedilla" format="2">
  <advance width="2252"/>
  <unicode hex="00B8"/>
  <outline>
    <contour>
      <point x="1307" y="-573" type="curve" smooth="yes"/>
      <point x="1307" y="-356"/>
      <point x="1124" y="-324"/>
      <point x="889" y="-324" type="curve"/>
      <point x="1257" y="168" type="line"/>
      <point x="1335" y="168" type="line"/>
      <point x="1090" y="-160" type="line"/>
      <point x="1423" y="-172"/>
      <point x="1679" y="-263"/>
      <point x="1679" y="-492" type="curve" smooth="yes"/>
      <point x="1679" y="-697"/>
      <point x="1483" y="-883"/>
      <point x="926" y="-883" type="curve"/>
      <point x="926" y="-825" type="line"/>
      <point x="1168" y="-825"/>
      <point x="1307" y="-716"/>
    </contour>
  </outline>
</glyph>
<glyph name="threequarters" format="2">
  <advance width="2931"/>
  <unicode hex="00BE"/>
  <outline>
    <contour>
      <point x="2365.5" y="2662" type="line"/>
      <point x="2420.5" y="2662" type="line"/>
      <point x="458" y="-410" type="line"/>
      <point x="402.5" y="-410" type="line"/>
    </contour>
    <component base="three" xScale="0.6" yScale="0.6" xOffset="20" yOffset="1450"/>
    <component base="four" xScale="0.6" yScale="0.6" xOffset="1352" yOffset="-422"/>
  </outline>
</glyph>
<glyph name="AE" format="2">
  <advance width="4188"/>
  <unicode hex="00C6"/>
  <outline>
    <contour>
      <point x="2150" y="3072" type="line"/>
      <point x="2216" y="3072" type="line"/>
      <point x="461" y="0" type="line"/>
      <point x="383" y="0" type="line"/>
    </contour>
    <contour>
      <point x="61" y="57" type="line"/>
      <point x="963" y="57" type="line"/>
      <point x="963" y="0" type="line"/>
      <point x="61" y="0" type="line"/>
    </contour>
    <contour>
      <point x="1007" y="1032" type="line"/>
      <point x="2191" y="1032" type="line"/>
      <point x="2191" y="975" type="line"/>
      <point x="1007" y="975" type="line"/>
    </contour>
    <contour>
      <point x="2150" y="3072" type="line"/>
      <point x="2663" y="3072" type="line"/>
      <point x="2663" y="0" type="line"/>
      <point x="2150" y="0" type="line"/>
    </contour>
    <contour>
      <point x="2150" y="3072" type="line"/>
      <point x="4024" y="3072" type="line"/>
      <point x="4024" y="2232" type="line"/>
      <point x="3967" y="2232" type="line"/>
      <point x="3936" y="2670"/>
      <point x="3725" y="3015"/>
      <point x="3256" y="3015" type="curve" smooth="yes"/>
      <point x="2150" y="3015" type="line"/>
    </contour>
    <contour>
      <point x="4065" y="0" type="line"/>
      <point x="1782" y="0" type="line"/>
      <point x="1782" y="57" type="line"/>
      <point x="3216" y="57" type="line" smooth="yes"/>
      <point x="3767" y="57"/>
      <point x="3977" y="402"/>
      <point x="4008" y="922" type="curve"/>
      <point x="4065" y="922" type="line"/>
    </contour>
    <contour>
      <point x="3301" y="1108" type="line"/>
      <point x="3270" y="1382"/>
      <point x="3090" y="1561"/>
      <point x="2857" y="1561" type="curve" smooth="yes"/>
      <point x="2612" y="1561" type="line"/>
      <point x="2612" y="1618" type="line"/>
      <point x="2857" y="1618" type="line" smooth="yes"/>
      <point x="3090" y="1618"/>
      <point x="3270" y="1776"/>
      <point x="3301" y="2050" type="curve"/>
      <point x="3359" y="2050" type="line"/>
      <point x="3359" y="1108" type="line"/>
    </contour>
  </outline>
</glyph>
<glyph name="Thorn" format="2">
  <advance width="5048"/>
  <unicode hex="00DE"/>
  <outline>
    <contour>
      <point x="840" y="6000" type="line"/>
      <point x="1792" y="6000" type="line"/>
      <point x="1792" y="0" type="line"/>
      <point x="840" y="0" type="line"/>
    </contour>
    <contour>
      <point x="120" y="112" type="line"/>
      <point x="2512" y="112" type="line"/>
      <point x="2512" y="0" type="line"/>
      <point x="120" y="0" type="line"/>
    </contour>
    <contour>
      <point x="120" y="6000" type="line"/>
      <point x="2512" y="6000" type="line"/>
      <point x="2512" y="5888" type="line"/>
      <point x="120" y="5888" type="line"/>
    </contour>
    <contour>
      <point x="2672" y="1440" type="curve" smooth="yes"/>
      <point x="1632" y="1440" type="line"/>
      <point x="1632" y="1552" type="line"/>
      <point x="2560" y="1552" type="line" smooth="yes"/>
      <point x="3328" y="1552"/>
      <point x="3696" y="2408"/>
      <point x="3696" y="3120" type="curve" smooth="yes"/>
      <point x="3696" y="3832"/>
      <point x="3328" y="4688"/>
      <point x="2560" y="4688" type="curve" smooth="yes"/>
      <point x="1632" y="4688" type="line"/>
      <point x="1632" y="4800" type="line"/>
      <point x="2672" y="4800" type="line" smooth="yes"/>
      <point x="4120" y="4800"/>
      <point x="4768" y="4160"/>
      <point x="4768" y="3120" type="curve" smooth="yes"/>
      <point x="4768" y="2080"/>
      <point x="4120" y="1440"/>
    </contour>
  </outline>
</glyph>
<glyph name="germandbls" format="2">
  <advance width="2973"/>
  <unicode hex="00DF"/>
  <outline>
    <contour>
      <point x="1528" y="1647" type="curve"/>
      <point x="1528" y="1688" type="line"/>
      <point x="2015" y="1688"/>
      <point x="2150" y="2077"/>
      <point x="2150" y="2339" type="curve" smooth="yes"/>
      <point x="2150" y="2634"/>
      <point x="2026" y="3064"/>
      <point x="1610" y="3064" type="curve" smooth="yes"/>
      <point x="1082" y="3064"/>
      <point x="922" y="2552"/>
      <point x="922" y="1970" type="curve" smooth="yes"/>
      <point x="922" y="0" type="line"/>
      <point x="430" y="0" type="line"/>
      <point x="430" y="2011" type="line" smooth="yes"/>
      <point x="430" y="2741"/>
      <point x="952" y="3113"/>
      <point x="1620" y="3113" type="curve" smooth="yes"/>
      <point x="2206" y="3113"/>
      <point x="2687" y="2792"/>
      <point x="2687" y="2380" type="curve" smooth="yes"/>
      <point x="2687" y="1950"/>
      <point x="2351" y="1647"/>
    </contour>
    <contour>
      <point x="61" y="57" type="line"/>
      <point x="1290" y="57" type="line"/>
      <point x="1290" y="0" type="line"/>
      <point x="61" y="0" type="line"/>
    </contour>
    <contour>
      <point x="2810" y="686" type="curve" smooth="yes"/>
      <point x="2810" y="235"/>
      <point x="2394" y="-41"/>
      <point x="1939" y="-41" type="curve" smooth="yes"/>
      <point x="1607" y="-41"/>
      <point x="1354" y="200"/>
      <point x="1354" y="598" type="curve" smooth="yes"/>
      <point x="1354" y="797"/>
      <point x="1495" y="905"/>
      <point x="1659" y="905" type="curve" smooth="yes"/>
      <point x="1803" y="905"/>
      <point x="1931" y="813"/>
      <point x="1931" y="635" type="curve" smooth="yes"/>
      <point x="1931" y="473"/>
      <point x="1787" y="369"/>
      <point x="1647" y="369" type="curve" smooth="yes"/>
      <point x="1566" y="369"/>
      <point x="1478" y="410"/>
      <point x="1436" y="477" type="curve"/>
      <point x="1457" y="217"/>
      <point x="1670" y="21"/>
      <point x="1899" y="21" type="curve" smooth="yes"/>
      <point x="2213" y="21"/>
      <point x="2274" y="393"/>
      <point x="2274" y="655" type="curve" smooth="yes"/>
      <point x="2274" y="1040"/>
      <point x="2179" y="1634"/>
      <point x="1528" y="1634" type="curve"/>
      <point x="1528" y="1675" type="line"/>
      <point x="2515" y="1675"/>
      <point x="2810" y="1218"/>
    </contour>
  </outline>
</glyph>
<glyph name="ae" format="2">
  <advance width="6328"/>
  <unicode hex="00E6"/>
  <outline>
    <contour>
      <point x="560" y="2912" type="curve" smooth="yes"/>
      <point x="560" y="3416"/>
      <point x="1256" y="3744"/>
      <point x="2016" y="3744" type="curve" smooth="yes"/>
      <point x="3056" y="3744"/>
      <point x="3264" y="3120"/>
      <point x="3264" y="2440" type="curve"/>
      <point x="3176" y="1448" type="line"/>
      <point x="3176" y="456"/>
      <point x="2568" y="-80"/>
      <point x="1664" y="-80" type="curve" smooth="yes"/>
      <point x="936" y="-80"/>
      <point x="280" y="184"/>
      <point x="280" y="904" type="curve" smooth="yes"/>
      <point x="280" y="1576"/>
      <point x="896" y="2072"/>
      <point x="2032" y="2072" type="curve" smooth="yes"/>
      <point x="2928" y="2072" type="line"/>
      <point x="2928" y="1960" type="line"/>
      <point x="2144" y="1960" type="line" smooth="yes"/>
      <point x="1584" y="1960"/>
      <point x="1256" y="1528"/>
      <point x="1256" y="1000" type="curve" smooth="yes"/>
      <point x="1256" y="464"/>
      <point x="1456" y="40"/>
      <point x="1848" y="40" type="curve" smooth="yes"/>
      <point x="2256" y="40"/>
      <point x="2560" y="592"/>
      <point x="2560" y="1368" type="curve" smooth="yes"/>
      <point x="2560" y="2440" type="line" smooth="yes"/>
      <point x="2560" y="2976"/>
      <point x="2480" y="3608"/>
      <point x="1840" y="3608" type="curve" smooth="yes"/>
      <point x="1464" y="3608"/>
      <point x="1168" y="3488"/>
      <point x="1024" y="3352" type="curve"/>
      <point x="1320" y="3416"/>
      <point x="1608" y="3232"/>
      <point x="1608" y="2928" type="curve" smooth="yes"/>
      <point x="1608" y="2592"/>
      <point x="1304" y="2424"/>
      <point x="1056" y="2424" type="curve" smooth="yes"/>
      <point x="768" y="2424"/>
      <point x="560" y="2608"/>
    </contour>
    <contour>
      <point x="5136" y="2120" type="line"/>
      <point x="5128" y="2752"/>
      <point x="5056" y="3648"/>
      <point x="4424" y="3648" type="curve" smooth="yes"/>
      <point x="3728" y="3648"/>
      <point x="3544" y="2784"/>
      <point x="3544" y="1872" type="curve" smooth="yes"/>
      <point x="3544" y="960"/>
      <point x="3752" y="48"/>
      <point x="4584" y="48" type="curve" smooth="yes"/>
      <point x="5304" y="48"/>
      <point x="5816" y="528"/>
      <point x="6016" y="1144" type="curve"/>
      <point x="6128" y="1144" type="line"/>
      <point x="5920" y="448"/>
      <point x="5368" y="-80"/>
      <point x="4448" y="-80" type="curve" smooth="yes"/>
      <point x="3416" y="-80"/>
      <point x="2736" y="624"/>
      <point x="2736" y="1840" type="curve" smooth="yes"/>
      <point x="2736" y="3056"/>
      <point x="3392" y="3760"/>
      <point x="4424" y="3760" type="curve" smooth="yes"/>
      <point x="5616" y="3760"/>
      <point x="6120" y="2880"/>
      <point x="6120" y="2008" type="curve"/>
      <point x="3168" y="2008" type="line"/>
      <point x="3168" y="2120" type="line"/>
    </contour>
  </outline>
</glyph>
<glyph name="eth" format="2">
  <advance width="4640"/>
  <unicode hex="00F0"/>
  <outline>
    <contour>
      <point x="944" y="5040" type="line"/>
      <point x="4384" y="5040" type="line"/>
      <point x="4384" y="4928" type="line"/>
      <point x="944" y="4928" type="line"/>
    </contour>
    <contour>
      <point x="4240" y="2480" type="curve" smooth="yes"/>
      <point x="4240" y="800"/>
      <point x="3448" y="-80"/>
      <point x="2208" y="-80" type="curve" smooth="yes"/>
      <point x="968" y="-80"/>
      <point x="240" y="800"/>
      <point x="240" y="2000" type="curve" smooth="yes"/>
      <point x="240" y="3360"/>
      <point x="1200" y="3928"/>
      <point x="2040" y="3928" type="curve" smooth="yes"/>
      <point x="3040" y="3928"/>
      <point x="3312" y="3192"/>
      <point x="3312" y="2240" type="curve"/>
      <point x="3232" y="2240" type="line"/>
      <point x="3232" y="3192"/>
      <point x="2872" y="3752"/>
      <point x="2240" y="3752" type="curve" smooth="yes"/>
      <point x="1608" y="3752"/>
      <point x="1248" y="3152"/>
      <point x="1248" y="2000" type="curve" smooth="yes"/>
      <point x="1248" y="1008"/>
      <point x="1408" y="32"/>
      <point x="2184" y="32" type="curve" smooth="yes"/>
      <point x="2960" y="32"/>
      <point x="3232" y="1088"/>
      <point x="3232" y="2240" type="curve"/>
      <point x="3224" y="2824" type="line"/>
      <point x="3224" y="4272"/>
      <point x="2248" y="5984"/>
      <point x="840" y="5984" type="curve"/>
      <point x="840" y="6080" type="line"/>
      <point x="2736" y="6080"/>
      <point x="4240" y="4456"/>
    </contour>
  </outline>
</glyph>
<glyph name="divide" format="2">
  <advance width="2395"/>
  <unicode hex="00F7"/>
  <outline>
    <contour>
      <point x="195" y="1647" type="line"/>
      <point x="2202" y="1647" type="line"/>
      <point x="2202" y="1590" type="line"/>
      <point x="195" y="1590" type="line"/>
    </contour>
    <contour>
      <point x="891" y="830" type="curve" smooth="yes"/>
      <point x="891" y="999"/>
      <point x="1029" y="1137"/>
      <point x="1198" y="1137" type="curve" smooth="yes"/>
      <point x="1367" y="1137"/>
      <point x="1505" y="999"/>
      <point x="1505" y="830" type="curve" smooth="yes"/>
      <point x="1505" y="661"/>
      <point x="1367" y="522"/>
      <point x="1198" y="522" type="curve" smooth="yes"/>
      <point x="1029" y="522"/>
      <point x="891" y="661"/>
    </contour>
    <contour>
      <point x="891" y="2345" type="curve" smooth="yes"/>
      <point x="891" y="2514"/>
      <point x="1029" y="2652"/>
      <point x="1198" y="2652" type="curve" smooth="yes"/>
      <point x="1367" y="2652"/>
      <point x="1505" y="2514"/>
      <point x="1505" y="2345" type="curve" smooth="yes"/>
      <point x="1505" y="2176"/>
      <point x="1367" y="2038"/>
      <point x="1198" y="2038" type="curve" smooth="yes"/>
      <point x="1029" y="2038"/>
      <point x="891" y="2176"/>
    </contour>
  </outline>
</glyph>
<glyph name="thorn" format="2">
  <advance width="4744"/>
  <unicode hex="00FE"/>
  <outline>
    <contour>
      <point x="1480" y="1840" type="curve" smooth="yes"/>
      <point x="1480" y="3056"/>
      <point x="1952" y="3752"/>
      <point x="2808" y="3752" type="curve" smooth="yes"/>
      <point x="3680" y="3752"/>
      <point x="4504" y="3040"/>
      <point x="4504" y="1840" type="curve" smooth="yes"/>
      <point x="4504" y="640"/>
      <point x="3680" y="-80"/>
      <point x="2808" y="-80" type="curve" smooth="yes"/>
      <point x="1952" y="-80"/>
      <point x="1480" y="624"/>
    </contour>
    <contour>
      <point x="1560" y="1840" type="curve" smooth="yes"/>
      <point x="1560" y="656"/>
      <point x="2080" y="104"/>
      <point x="2600" y="104" type="curve" smooth="yes"/>
      <point x="3200" y="104"/>
      <point x="3488" y="752"/>
      <point x="3488" y="1840" type="curve" smooth="yes"/>
      <point x="3488" y="2928"/>
      <point x="3208" y="3568"/>
      <point x="2608" y="3568" type="curve" smooth="yes"/>
      <point x="2080" y="3568"/>
      <point x="1560" y="3024"/>
    </contour>
    <contour>
      <point x="120" y="-1888" type="line"/>
      <point x="2120" y="-1888" type="line"/>
      <point x="2120" y="-2000" type="line"/>
      <point x="120" y="-2000" type="line"/>
    </contour>
    <contour>
      <point x="680" y="5888" type="line"/>
      <point x="120" y="5888" type="line"/>
      <point x="120" y="6000" type="line"/>
      <point x="1560" y="6000" type="line"/>
      <point x="1560" y="-2000" type="line"/>
      <point x="680" y="-2000" type="line"/>
    </contour>
  </outline>
</glyph>
<glyph name="dotlessi" format="2">
  <advance width="2320"/>
  <unicode hex="0131"/>
  <outline>
    <contour>
      <point x="160" y="112" type="line"/>
      <point x="2160" y="112" type="line"/>
      <point x="2160" y="0" type="line"/>
      <point x="160" y="0" type="line"/>
    </contour>
    <contour>
      <point x="720" y="3568" type="line"/>
      <point x="160" y="3568" type="line"/>
      <point x="160" y="3680" type="line"/>
      <point x="1600" y="3680" type="line"/>
      <point x="1600" y="0" type="line"/>
      <point x="720" y="0" type="line"/>
    </contour>
  </outline>
</glyph>
<glyph name="kgreenlandic" format="2">
  <advance width="4848"/>
  <unicode hex="0138"/>
  <outline>
    <contour>
      <point x="4416" y="0" type="line"/>
      <point x="3320" y="0" type="line"/>
      <point x="1616" y="2104" type="line"/>
      <point x="3696" y="3680" type="line"/>
      <point x="3872" y="3680" type="line"/>
      <point x="2368" y="2512" type="line"/>
    </contour>
    <contour>
      <point x="2680" y="112" type="line"/>
      <point x="4720" y="112" type="line"/>
      <point x="4720" y="0" type="line"/>
      <point x="2680" y="0" type="line"/>
    </contour>
    <contour>
      <point x="4400" y="3568" type="line"/>
      <point x="2616" y="3568" type="line"/>
      <point x="2616" y="3680" type="line"/>
      <point x="4400" y="3680" type="line"/>
    </contour>
    <contour>
      <point x="144" y="112" type="line"/>
      <point x="2256" y="112" type="line"/>
      <point x="2256" y="0" type="line"/>
      <point x="144" y="0" type="line"/>
    </contour>
    <contour>
      <point x="864" y="3568" type="line"/>
      <point x="144" y="3568" type="line"/>
      <point x="144" y="3680" type="line"/>
      <point x="1744" y="3680" type="line"/>
      <point x="1744" y="0" type="line"/>
      <point x="864" y="0" type="line"/>
    </contour>
  </outline>
</glyph>
<glyph name="lslash" format="2">
  <advance width="2608"/>
  <unicode hex="0142"/>
  <outline>
    <contour>
      <point x="104" y="3136" type="line"/>
      <point x="2544" y="4640" type="line"/>
      <point x="2544" y="4496" type="line"/>
      <point x="104" y="2992" type="line"/>
    </contour>
    <component base="l"/>
  </outline>
</glyph>
<glyph name="OE" format="2">
  <advance width="3978"/>
  <unicode hex="0152"/>
  <outline>
    <contour>
      <point x="1624" y="3015" type="move"/>
    </contour>
    <contour>
      <point x="758" y="1536" type="curve" smooth="yes"/>
      <point x="758" y="760"/>
      <point x="962" y="57"/>
      <point x="1624" y="57" type="curve"/>
      <point x="1563" y="0" type="line"/>
      <point x="732" y="0"/>
      <point x="164" y="623"/>
      <point x="164" y="1536" type="curve" smooth="yes"/>
      <point x="164" y="2449"/>
      <point x="732" y="3072"/>
      <point x="1563" y="3072" type="curve"/>
      <point x="1624" y="3015" type="line"/>
      <point x="962" y="3015"/>
      <point x="758" y="2312"/>
    </contour>
    <component base="E" xOffset="1496"/>
  </outline>
</glyph>
<glyph name="uni0237" format="2">
  <advance width="1290"/>
  <unicode hex="0237"/>
  <outline>
    <contour>
      <point x="942.5" y="1884" type="line"/>
      <point x="942.5" y="-49" type="line" smooth="yes"/>
      <point x="942.5" y="-586"/>
      <point x="729.5" y="-1065"/>
      <point x="177" y="-1065" type="curve" smooth="yes"/>
      <point x="-175.5" y="-1065"/>
      <point x="-388.5" y="-852"/>
      <point x="-388.5" y="-600.5" type="curve" smooth="yes"/>
      <point x="-388.5" y="-413"/>
      <point x="-255" y="-303.5"/>
      <point x="-104.5" y="-303.5" type="curve" smooth="yes"/>
      <point x="28.5" y="-303.5"/>
      <point x="177" y="-381"/>
      <point x="177" y="-565.5" type="curve" smooth="yes"/>
      <point x="177" y="-729.5"/>
      <point x="62.5" y="-834"/>
      <point x="-113.5" y="-834" type="curve" smooth="yes"/>
      <point x="-176.5" y="-834"/>
      <point x="-249" y="-804.5"/>
      <point x="-279" y="-769" type="curve"/>
      <point x="-238" y="-881"/>
      <point x="-82.5" y="-1006"/>
      <point x="141" y="-1006" type="curve" smooth="yes"/>
      <point x="540.5" y="-1006"/>
      <point x="470" y="-437"/>
      <point x="470" y="83" type="curve" smooth="yes"/>
      <point x="472" y="1828" type="line"/>
      <point x="116" y="1828" type="line"/>
      <point x="116" y="1884" type="line"/>
    </contour>
  </outline>
</glyph>
<glyph name="circumflex" format="2">
  <advance width="1658"/>
  <unicode hex="02C6"/>
  <outline>
    <contour>
      <point x="827" y="2919" type="line"/>
      <point x="233" y="2624" type="line"/>
      <point x="205" y="2652" type="line"/>
      <point x="676" y="3154" type="line"/>
      <point x="983" y="3154" type="line"/>
      <point x="1454" y="2652" type="line"/>
      <point x="1425" y="2624" type="line"/>
    </contour>
  </outline>
</glyph>
<glyph name="caron" format="2">
  <advance width="3208"/>
  <unicode hex="02C7"/>
  <outline>
    <contour>
      <point x="1600" y="5720" type="line"/>
      <point x="2752" y="6296" type="line"/>
      <point x="2808" y="6240" type="line"/>
      <point x="1896" y="5280" type="line"/>
      <point x="1312" y="5280" type="line"/>
      <point x="400" y="6240" type="line"/>
      <point x="456" y="6296" type="line"/>
    </contour>
  </outline>
</glyph>
<glyph name="ring" format="2">
  <advance width="1310"/>
  <unicode hex="02DA"/>
  <outline>
    <contour>
      <point x="266" y="2785" type="curve" smooth="yes"/>
      <point x="266" y="2994"/>
      <point x="425" y="3154"/>
      <point x="655" y="3154" type="curve" smooth="yes"/>
      <point x="885" y="3154"/>
      <point x="1044" y="2994"/>
      <point x="1044" y="2785" type="curve" smooth="yes"/>
      <point x="1044" y="2576"/>
      <point x="885" y="2417"/>
      <point x="655" y="2417" type="curve" smooth="yes"/>
      <point x="425" y="2417"/>
      <point x="266" y="2576"/>
    </contour>
    <contour>
      <point x="461" y="2785" type="curve" smooth="yes"/>
      <point x="461" y="2599"/>
      <point x="511" y="2474"/>
      <point x="655" y="2474" type="curve" smooth="yes"/>
      <point x="799" y="2474"/>
      <point x="850" y="2599"/>
      <point x="850" y="2785" type="curve" smooth="yes"/>
      <point x="850" y="2971"/>
      <point x="799" y="3097"/>
      <point x="655" y="3097" type="curve" smooth="yes"/>
      <point x="511" y="3097"/>
      <point x="461" y="2971"/>
    </contour>
  </outline>
</glyph>
<glyph name="ogonek" format="2">
  <advance width="4400"/>
  <unicode hex="02DB"/>
  <outline>
    <contour>
      <point x="3144" y="-936" type="line"/>
      <point x="3024" y="-1160"/>
      <point x="2808" y="-1520"/>
      <point x="2192" y="-1520" type="curve" smooth="yes"/>
      <point x="1736" y="-1520"/>
      <point x="1280" y="-1312"/>
      <point x="1280" y="-832" type="curve" smooth="yes"/>
      <point x="1280" y="-192"/>
      <point x="1968" y="176"/>
      <point x="2504" y="344" type="curve"/>
      <point x="2528" y="280" type="line"/>
      <point x="2312" y="160"/>
      <point x="2152" y="-208"/>
      <point x="2152" y="-632" type="curve" smooth="yes"/>
      <point x="2152" y="-1000"/>
      <point x="2288" y="-1296"/>
      <point x="2544" y="-1296" type="curve" smooth="yes"/>
      <point x="2808" y="-1296"/>
      <point x="2944" y="-1096"/>
      <point x="3056" y="-896" type="curve"/>
    </contour>
  </outline>
</glyph>
<glyph name="tilde" format="2">
  <advance width="1835"/>
  <unicode hex="02DC"/>
  <outline>
    <contour>
      <point x="512" y="2709" type="curve" smooth="yes"/>
      <point x="380" y="2709"/>
      <point x="262" y="2630"/>
      <point x="262" y="2448" type="curve"/>
      <point x="205" y="2448" type="line"/>
      <point x="205" y="2796"/>
      <point x="378" y="3009"/>
      <point x="610" y="3009" type="curve" smooth="yes"/>
      <point x="918" y="3009"/>
      <point x="1091" y="2685"/>
      <point x="1323" y="2685" type="curve" smooth="yes"/>
      <point x="1468" y="2685"/>
      <point x="1573" y="2765"/>
      <point x="1573" y="2947" type="curve"/>
      <point x="1630" y="2947" type="line"/>
      <point x="1630" y="2558"/>
      <point x="1539" y="2386"/>
      <point x="1266" y="2386" type="curve" smooth="yes"/>
      <point x="972" y="2386"/>
      <point x="772" y="2709"/>
    </contour>
  </outline>
</glyph>
<glyph name="pi" format="2">
  <advance width="4808"/>
  <unicode hex="03C0"/>
  <outline>
    <contour>
      <point x="4528" y="824" type="line"/>
      <point x="4344" y="264"/>
      <point x="4032" y="-80"/>
      <point x="3584" y="-80" type="curve" smooth="yes"/>
      <point x="3144" y="-80"/>
      <point x="2768" y="128"/>
      <point x="2768" y="616" type="curve" smooth="yes"/>
      <point x="2768" y="3360" type="line"/>
      <point x="3648" y="3360" type="line"/>
      <point x="3648" y="736" type="line" smooth="yes"/>
      <point x="3648" y="576"/>
      <point x="3744" y="448"/>
      <point x="3944" y="448" type="curve" smooth="yes"/>
      <point x="4120" y="448"/>
      <point x="4288" y="560"/>
      <point x="4448" y="872" type="curve"/>
    </contour>
    <contour>
      <point x="896" y="-80" type="curve" smooth="yes"/>
      <point x="536" y="-80"/>
      <point x="344" y="120"/>
      <point x="344" y="368" type="curve" smooth="yes"/>
      <point x="344" y="992"/>
      <point x="1384" y="736"/>
      <point x="1384" y="2232" type="curve" smooth="yes"/>
      <point x="1384" y="3600" type="line"/>
      <point x="1832" y="3600" type="line"/>
      <point x="1832" y="1944" type="line" smooth="yes"/>
      <point x="1832" y="680"/>
      <point x="1488" y="-80"/>
    </contour>
    <contour>
      <point x="4368" y="3680" type="line"/>
      <point x="4368" y="2800" type="line"/>
      <point x="440" y="2800" type="line"/>
      <point x="440" y="2200" type="line"/>
      <point x="328" y="2200" type="line"/>
      <point x="328" y="3680" type="line"/>
    </contour>
  </outline>
</glyph>
<glyph name="uni1E9E" format="2">
  <advance width="3464"/>
  <unicode hex="1E9E"/>
  <outline>
    <contour>
      <point x="61" y="57" type="line"/>
      <point x="1331" y="57" type="line"/>
      <point x="1331" y="0" type="line"/>
      <point x="61" y="0" type="line"/>
    </contour>
    <contour>
      <point x="2320" y="1625" type="line"/>
      <point x="2234" y="1650"/>
      <point x="1947" y="1691"/>
      <point x="1804" y="1700" type="curve"/>
      <point x="2762" y="2888" type="line"/>
      <point x="2610" y="2969"/>
      <point x="2349" y="3053"/>
      <point x="2029" y="3053" type="curve" smooth="yes"/>
      <point x="1275" y="3053"/>
      <point x="963" y="2501"/>
      <point x="963" y="1765" type="curve" smooth="yes"/>
      <point x="963" y="0" type="line"/>
      <point x="430" y="0" type="line"/>
      <point x="430" y="1806" type="line" smooth="yes"/>
      <point x="430" y="2658"/>
      <point x="1126" y="3113"/>
      <point x="2029" y="3113" type="curve" smooth="yes"/>
      <point x="2656" y="3113"/>
      <point x="3045" y="2842"/>
      <point x="3178" y="2697" type="curve"/>
    </contour>
    <contour>
      <point x="1435" y="456" type="curve"/>
      <point x="1465" y="274"/>
      <point x="1716" y="30"/>
      <point x="2124" y="30" type="curve" smooth="yes"/>
      <point x="2586" y="30"/>
      <point x="2750" y="382"/>
      <point x="2750" y="798" type="curve" smooth="yes"/>
      <point x="2750" y="1132"/>
      <point x="2650" y="1647"/>
      <point x="1804" y="1647" type="curve"/>
      <point x="1804" y="1700" type="line"/>
      <point x="3027" y="1700"/>
      <point x="3301" y="1275"/>
      <point x="3301" y="804" type="curve" smooth="yes"/>
      <point x="3301" y="262"/>
      <point x="2824" y="-41"/>
      <point x="2226" y="-41" type="curve" smooth="yes"/>
      <point x="1613" y="-41"/>
      <point x="1331" y="292"/>
      <point x="1331" y="608" type="curve" smooth="yes"/>
      <point x="1331" y="807"/>
      <point x="1459" y="930"/>
      <point x="1633" y="930" type="curve" smooth="yes"/>
      <point x="1787" y="930"/>
      <point x="1906" y="824"/>
      <point x="1906" y="646" type="curve" smooth="yes"/>
      <point x="1906" y="484"/>
      <point x="1766" y="369"/>
      <point x="1616" y="369" type="curve" smooth="yes"/>
      <point x="1524" y="369"/>
      <point x="1455" y="421"/>
    </contour>
  </outline>
</glyph>
<glyph name="uni2010" format="2">
  <advance width="2880"/>
  <unicode hex="2010"/>
  <outline>
    <contour>
      <point x="480" y="2256" type="line"/>
      <point x="2400" y="2256" type="line"/>
      <point x="2400" y="2144" type="line"/>
      <point x="480" y="2144" type="line"/>
    </contour>
  </outline>
</glyph>
<glyph name="uni203D" format="2">
  <advance width="2580"/>
  <unicode hex="203D"/>
  <outline>
    <contour>
      <point x="1581" y="2054" type="curve" smooth="yes"/>
      <point x="1536" y="1661"/>
      <point x="1296" y="1211"/>
      <point x="1296" y="924" type="curve"/>
      <point x="1239" y="924" type="line"/>
      <point x="1239" y="1211"/>
      <point x="1081" y="1661"/>
      <point x="1036" y="2054" type="curve" smooth="yes"/>
      <point x="1032" y="2083"/>
      <point x="1032" y="2107"/>
      <point x="1032" y="2132" type="curve" smooth="yes"/>
      <point x="1032" y="2247"/>
      <point x="1095" y="2439"/>
      <point x="1308" y="2439" type="curve" smooth="yes"/>
      <point x="1521" y="2439"/>
      <point x="1585" y="2247"/>
      <point x="1585" y="2132" type="curve" smooth="yes"/>
      <point x="1585" y="2107"/>
      <point x="1585" y="2083"/>
    </contour>
    <contour>
      <point x="277" y="2247" type="curve" smooth="yes"/>
      <point x="277" y="2624"/>
      <point x="672" y="3113"/>
      <point x="1366" y="3113" type="curve" smooth="yes"/>
      <point x="1984" y="3113"/>
      <point x="2437" y="2795"/>
      <point x="2437" y="2253" type="curve" smooth="yes"/>
      <point x="2437" y="1741"/>
      <point x="1876" y="1372"/>
      <point x="1360" y="1372" type="curve"/>
      <point x="1360" y="1413" type="line"/>
      <point x="1706" y="1452"/>
      <point x="1982" y="1894"/>
      <point x="1982" y="2294" type="curve" smooth="yes"/>
      <point x="1982" y="2679"/>
      <point x="1718" y="3019"/>
      <point x="1272" y="3019" type="curve" smooth="yes"/>
      <point x="716" y="3019"/>
      <point x="427" y="2634"/>
      <point x="387" y="2406" type="curve"/>
      <point x="407" y="2440"/>
      <point x="467" y="2488"/>
      <point x="561" y="2488" type="curve" smooth="yes"/>
      <point x="711" y="2488"/>
      <point x="826" y="2365"/>
      <point x="826" y="2222" type="curve" smooth="yes"/>
      <point x="826" y="2027"/>
      <point x="673" y="1942"/>
      <point x="551" y="1942" type="curve" smooth="yes"/>
      <point x="407" y="1942"/>
      <point x="277" y="2048"/>
    </contour>
    <component base="period" xOffset="795"/>
  </outline>
</glyph>
<glyph name="Euro" format="2">
  <advance width="2938"/>
  <unicode hex="20AC"/>
  <outline>
    <contour>
      <point x="2603.5" y="2691" type="curve"/>
      <point x="2529" y="2833.5"/>
      <point x="2296.5" y="3047.5"/>
      <point x="1941.5" y="3047.5" type="curve" smooth="yes"/>
      <point x="1300.5" y="3047.5"/>
      <point x="1085.5" y="2290"/>
      <point x="1085.5" y="1536" type="curve" smooth="yes"/>
      <point x="1085.5" y="700.5"/>
      <point x="1356" y="39"/>
      <point x="1853.5" y="39" type="curve" smooth="yes"/>
      <point x="2253" y="39"/>
      <point x="2541.5" y="369"/>
      <point x="2643.5" y="729" type="curve"/>
      <point x="2705.5" y="729" type="line"/>
      <point x="2599.5" y="332"/>
      <point x="2290.5" y="-41"/>
      <point x="1774" y="-41" type="curve" smooth="yes"/>
      <point x="1105" y="-41"/>
      <point x="481" y="594"/>
      <point x="481" y="1536" type="curve" smooth="yes"/>
      <point x="481" y="2396"/>
      <point x="1026.5" y="3113"/>
      <point x="1880" y="3113" type="curve" smooth="yes"/>
      <point x="2411" y="3113"/>
      <point x="2734.5" y="2746"/>
      <point x="2734.5" y="2502.5" type="curve" smooth="yes"/>
      <point x="2734.5" y="2303.5"/>
      <point x="2602.5" y="2197.5"/>
      <point x="2449" y="2197.5" type="curve" smooth="yes"/>
      <point x="2316" y="2197.5"/>
      <point x="2165" y="2283.5"/>
      <point x="2165" y="2478.5" type="curve" smooth="yes"/>
      <point x="2165" y="2652"/>
      <point x="2299.5" y="2755"/>
      <point x="2449" y="2755" type="curve" smooth="yes"/>
      <point x="2525" y="2755"/>
      <point x="2581.5" y="2714.5"/>
    </contour>
    <component base="equal" xOffset="-123" yOffset="-287"/>
  </outline>
</glyph>
<glyph name="uni2116" format="2">
  <advance width="8880"/>
  <unicode hex="2116"/>
  <outline>
    <contour>
      <point x="6632" y="4560" type="curve" smooth="yes"/>
      <point x="6632" y="3648"/>
      <point x="6816" y="3152"/>
      <point x="7256" y="3152" type="curve" smooth="yes"/>
      <point x="7696" y="3152"/>
      <point x="7880" y="3648"/>
      <point x="7880" y="4560" type="curve" smooth="yes"/>
      <point x="7880" y="5472"/>
      <point x="7696" y="5968"/>
      <point x="7256" y="5968" type="curve" smooth="yes"/>
      <point x="6816" y="5968"/>
      <point x="6632" y="5472"/>
    </contour>
    <contour>
      <point x="5856" y="4560" type="curve" smooth="yes"/>
      <point x="5856" y="5536"/>
      <point x="6432" y="6080"/>
      <point x="7256" y="6080" type="curve" smooth="yes"/>
      <point x="8080" y="6080"/>
      <point x="8656" y="5536"/>
      <point x="8656" y="4560" type="curve" smooth="yes"/>
      <point x="8656" y="3584"/>
      <point x="8080" y="3040"/>
      <point x="7256" y="3040" type="curve" smooth="yes"/>
      <point x="6432" y="3040"/>
      <point x="5856" y="3584"/>
    </contour>
    <component base="hyphen" xOffset="5816" yOffset="320"/>
    <component base="N"/>
  </outline>
</glyph>
<glyph name="uniFB00" format="2">
  <advance width="2723"/>
  <unicode hex="FB00"/>
  <outline>
    <contour>
      <point x="56" y="57" type="line"/>
      <point x="2594" y="57" type="line"/>
      <point x="2594" y="0" type="line"/>
      <point x="56" y="0" type="line"/>
    </contour>
    <contour>
      <point x="56" y="1884" type="line"/>
      <point x="2676" y="1884" type="line"/>
      <point x="2676" y="1827" type="line"/>
      <point x="56" y="1827" type="line"/>
    </contour>
    <contour>
      <point x="1835" y="2609" type="curve"/>
      <point x="1819" y="2704"/>
      <point x="1642" y="2849"/>
      <point x="1406" y="2849" type="curve" smooth="yes"/>
      <point x="1097" y="2849"/>
      <point x="886" y="2527"/>
      <point x="886" y="2007" type="curve" smooth="yes"/>
      <point x="886" y="0" type="line"/>
      <point x="425" y="0" type="line"/>
      <point x="425" y="1892" type="line" smooth="yes"/>
      <point x="425" y="2449"/>
      <point x="823" y="2908"/>
      <point x="1396" y="2908" type="curve" smooth="yes"/>
      <point x="1738" y="2908"/>
      <point x="1972" y="2673"/>
      <point x="1972" y="2442" type="curve" smooth="yes"/>
      <point x="1972" y="2254"/>
      <point x="1850" y="2146"/>
      <point x="1696" y="2146" type="curve" smooth="yes"/>
      <point x="1563" y="2146"/>
      <point x="1416" y="2230"/>
      <point x="1416" y="2412" type="curve" smooth="yes"/>
      <point x="1416" y="2594"/>
      <point x="1543" y="2682"/>
      <point x="1699" y="2682" type="curve" smooth="yes"/>
      <point x="1765" y="2682"/>
      <point x="1823" y="2640"/>
    </contour>
    <contour>
      <point x="2954" y="2844" type="curve"/>
      <point x="2917" y="2937"/>
      <point x="2800" y="3055"/>
      <point x="2558" y="3055" type="curve" smooth="yes"/>
      <point x="2230" y="3055"/>
      <point x="2110" y="2732"/>
      <point x="2110" y="2212" type="curve" smooth="yes"/>
      <point x="2110" y="0" type="line"/>
      <point x="1648" y="0" type="line"/>
      <point x="1648" y="2097" type="line" smooth="yes"/>
      <point x="1648" y="2654"/>
      <point x="1985" y="3113"/>
      <point x="2548" y="3113" type="curve" smooth="yes"/>
      <point x="2890" y="3113"/>
      <point x="3082" y="2889"/>
      <point x="3082" y="2676" type="curve" smooth="yes"/>
      <point x="3082" y="2488"/>
      <point x="2962" y="2382"/>
      <point x="2808" y="2382" type="curve" smooth="yes"/>
      <point x="2675" y="2382"/>
      <point x="2527" y="2465"/>
      <point x="2527" y="2647" type="curve" smooth="yes"/>
      <point x="2527" y="2829"/>
      <point x="2657" y="2917"/>
      <point x="2813" y="2917" type="curve" smooth="yes"/>
      <point x="2875" y="2917"/>
      <point x="2938" y="2886"/>
    </contour>
  </outline>
</glyph>
<glyph name="uniFB01" format="2">
  <advance width="2421"/>
  <unicode hex="FB01"/>
  <outline>
    <contour>
      <point x="425" y="2097" type="line" smooth="yes"/>
      <point x="425" y="2665"/>
      <point x="792" y="3113"/>
      <point x="1457" y="3113" type="curve" smooth="yes"/>
      <point x="1881" y="3113"/>
      <point x="2084" y="2889"/>
      <point x="2084" y="2646" type="curve" smooth="yes"/>
      <point x="2084" y="2458"/>
      <point x="1963" y="2352"/>
      <point x="1809" y="2352" type="curve" smooth="yes"/>
      <point x="1673" y="2352"/>
      <point x="1529" y="2436"/>
      <point x="1529" y="2614" type="curve" smooth="yes"/>
      <point x="1529" y="2796"/>
      <point x="1659" y="2884"/>
      <point x="1815" y="2884" type="curve" smooth="yes"/>
      <point x="1887" y="2884"/>
      <point x="1936" y="2847"/>
      <point x="1948" y="2809" type="curve"/>
      <point x="1928" y="2919"/>
      <point x="1779" y="3056"/>
      <point x="1457" y="3056" type="curve" smooth="yes"/>
      <point x="1025" y="3056"/>
      <point x="886" y="2732"/>
      <point x="886" y="2212" type="curve" smooth="yes"/>
      <point x="886" y="0" type="line"/>
      <point x="425" y="0" type="line"/>
    </contour>
    <contour>
      <point x="56" y="57" type="line"/>
      <point x="2355" y="57" type="line"/>
      <point x="2355" y="0" type="line"/>
      <point x="56" y="0" type="line"/>
    </contour>
    <contour>
      <point x="1597" y="1827" type="line"/>
      <point x="56" y="1827" type="line"/>
      <point x="56" y="1884" type="line"/>
      <point x="2068" y="1884" type="line"/>
      <point x="2068" y="0" type="line"/>
      <point x="1597" y="0" type="line"/>
    </contour>
  </outline>
</glyph>
<glyph name="uniFB02" format="2">
  <advance width="2683"/>
  <unicode hex="FB02"/>
  <outline>
    <contour>
      <point x="101.5" y="56" type="line"/>
      <point x="2563.5" y="56" type="line"/>
      <point x="2563.5" y="0" type="line"/>
      <point x="101.5" y="0" type="line"/>
    </contour>
    <contour>
      <point x="101.5" y="1884" type="line"/>
      <point x="1494" y="1884" type="line"/>
      <point x="1494" y="1828" type="line"/>
      <point x="101.5" y="1828" type="line"/>
    </contour>
    <contour>
      <point x="1764.5" y="2990" type="line"/>
      <point x="2236.5" y="3154" type="line"/>
      <point x="2236.5" y="0" type="line"/>
      <point x="1764.5" y="0" type="line"/>
    </contour>
    <contour>
      <point x="1816.5" y="2820" type="curve"/>
      <point x="1791" y="2935"/>
      <point x="1637" y="3056.5"/>
      <point x="1403" y="3056.5" type="curve" smooth="yes"/>
      <point x="1033.5" y="3056.5"/>
      <point x="930" y="2732"/>
      <point x="930" y="2212" type="curve" smooth="yes"/>
      <point x="930" y="0" type="line"/>
      <point x="470" y="0" type="line"/>
      <point x="470" y="2097" type="line" smooth="yes"/>
      <point x="470" y="2654.5"/>
      <point x="829.5" y="3113"/>
      <point x="1392.5" y="3113" type="curve" smooth="yes"/>
      <point x="1734.5" y="3113"/>
      <point x="1931" y="2899.5"/>
      <point x="1931" y="2666" type="curve" smooth="yes"/>
      <point x="1931" y="2477.5"/>
      <point x="1810" y="2372"/>
      <point x="1656.5" y="2372" type="curve" smooth="yes"/>
      <point x="1523.5" y="2372"/>
      <point x="1375" y="2449"/>
      <point x="1375" y="2633.5" type="curve" smooth="yes"/>
      <point x="1375" y="2813"/>
      <point x="1500" y="2904.5"/>
      <point x="1644.5" y="2904.5" type="curve" smooth="yes"/>
      <point x="1743.5" y="2904.5"/>
      <point x="1807.5" y="2823.5"/>
    </contour>
  </outline>
</glyph>
<glyph name="uniFB03" format="2">
  <advance width="876"/>
  <unicode hex="FB03"/>
  <outline>
    <contour>
      <point x="396" y="512" type="line" smooth="yes"/>
      <point x="396" y="649"/>
      <point x="483" y="760"/>
      <point x="643" y="760" type="curve" smooth="yes"/>
      <point x="746" y="760"/>
      <point x="794" y="706"/>
      <point x="794" y="647" type="curve" smooth="yes"/>
      <point x="794" y="602"/>
      <point x="765" y="577"/>
      <point x="729" y="577" type="curve" smooth="yes"/>
      <point x="697" y="577"/>
      <point x="663" y="597"/>
      <point x="663" y="639" type="curve" smooth="yes"/>
      <point x="663" y="682"/>
      <point x="694" y="703"/>
      <point x="731" y="703" type="curve" smooth="yes"/>
      <point x="748" y="703"/>
      <point x="760" y="694"/>
      <point x="762" y="686" type="curve"/>
      <point x="758" y="713"/>
      <point x="722" y="746"/>
      <point x="643" y="746" type="curve" smooth="yes"/>
      <point x="538" y="746"/>
      <point x="504" y="667"/>
      <point x="504" y="540" type="curve" smooth="yes"/>
      <point x="504" y="0" type="line"/>
      <point x="396" y="0" type="line"/>
    </contour>
    <contour>
      <point x="14" y="14" type="line"/>
      <point x="860" y="14" type="line"/>
      <point x="860" y="0" type="line"/>
      <point x="14" y="0" type="line"/>
    </contour>
    <contour>
      <point x="104" y="462" type="line" smooth="yes"/>
      <point x="104" y="597"/>
      <point x="199" y="710"/>
      <point x="337" y="710" type="curve" smooth="yes"/>
      <point x="420" y="710"/>
      <point x="476" y="653"/>
      <point x="476" y="597" type="curve" smooth="yes"/>
      <point x="476" y="552"/>
      <point x="447" y="527"/>
      <point x="411" y="527" type="curve" smooth="yes"/>
      <point x="380" y="527"/>
      <point x="345" y="547"/>
      <point x="345" y="590" type="curve" smooth="yes"/>
      <point x="345" y="633"/>
      <point x="375" y="653"/>
      <point x="412" y="653" type="curve" smooth="yes"/>
      <point x="427" y="653"/>
      <point x="440" y="646"/>
      <point x="443" y="638" type="curve"/>
      <point x="439" y="661"/>
      <point x="398" y="696"/>
      <point x="339" y="696" type="curve" smooth="yes"/>
      <point x="264" y="696"/>
      <point x="212" y="617"/>
      <point x="212" y="490" type="curve" smooth="yes"/>
      <point x="212" y="0" type="line"/>
      <point x="104" y="0" type="line"/>
    </contour>
    <contour>
      <point x="680" y="446" type="line"/>
      <point x="14" y="446" type="line"/>
      <point x="14" y="460" type="line"/>
      <point x="790" y="460" type="line"/>
      <point x="790" y="0" type="line"/>
      <point x="680" y="0" type="line"/>
    </contour>
  </outline>
</glyph>
<glyph name="uniFB04" format="2">
  <advance width="3788"/>
  <unicode hex="FB04"/>
  <outline>
    <contour>
      <point x="56" y="57" type="line"/>
      <point x="3727" y="57" type="line"/>
      <point x="3727" y="0" type="line"/>
      <point x="56" y="0" type="line"/>
    </contour>
    <contour>
      <point x="56" y="1884" type="line"/>
      <point x="2668" y="1884" type="line"/>
      <point x="2668" y="1827" type="line"/>
      <point x="56" y="1827" type="line"/>
    </contour>
    <contour>
      <point x="2949" y="2990" type="line"/>
      <point x="3420" y="3154" type="line"/>
      <point x="3420" y="0" type="line"/>
      <point x="2949" y="0" type="line"/>
    </contour>
    <contour>
      <point x="1832" y="2616" type="curve"/>
      <point x="1812" y="2708"/>
      <point x="1642" y="2849"/>
      <point x="1406" y="2849" type="curve" smooth="yes"/>
      <point x="1097" y="2849"/>
      <point x="886" y="2527"/>
      <point x="886" y="2007" type="curve" smooth="yes"/>
      <point x="886" y="0" type="line"/>
      <point x="425" y="0" type="line"/>
      <point x="425" y="1892" type="line" smooth="yes"/>
      <point x="425" y="2448"/>
      <point x="823" y="2908"/>
      <point x="1396" y="2908" type="curve" smooth="yes"/>
      <point x="1738" y="2908"/>
      <point x="1972" y="2673"/>
      <point x="1972" y="2442" type="curve" smooth="yes"/>
      <point x="1972" y="2254"/>
      <point x="1850" y="2146"/>
      <point x="1696" y="2146" type="curve" smooth="yes"/>
      <point x="1563" y="2146"/>
      <point x="1416" y="2230"/>
      <point x="1416" y="2412" type="curve" smooth="yes"/>
      <point x="1416" y="2594"/>
      <point x="1543" y="2682"/>
      <point x="1699" y="2682" type="curve" smooth="yes"/>
      <point x="1761" y="2682"/>
      <point x="1820" y="2647"/>
    </contour>
    <contour>
      <point x="2986" y="2813" type="curve"/>
      <point x="2968" y="2918"/>
      <point x="2822" y="3056"/>
      <point x="2588" y="3056" type="curve" smooth="yes"/>
      <point x="2239" y="3056"/>
      <point x="2110" y="2732"/>
      <point x="2110" y="2212" type="curve" smooth="yes"/>
      <point x="2110" y="0" type="line"/>
      <point x="1648" y="0" type="line"/>
      <point x="1648" y="2097" type="line" smooth="yes"/>
      <point x="1648" y="2654"/>
      <point x="2015" y="3113"/>
      <point x="2578" y="3113" type="curve" smooth="yes"/>
      <point x="2920" y="3113"/>
      <point x="3113" y="2889"/>
      <point x="3113" y="2646" type="curve" smooth="yes"/>
      <point x="3113" y="2458"/>
      <point x="2993" y="2352"/>
      <point x="2839" y="2352" type="curve" smooth="yes"/>
      <point x="2706" y="2352"/>
      <point x="2558" y="2430"/>
      <point x="2558" y="2614" type="curve" smooth="yes"/>
      <point x="2558" y="2798"/>
      <point x="2686" y="2886"/>
      <point x="2846" y="2886" type="curve" smooth="yes"/>
      <point x="2932" y="2886"/>
      <point x="2980" y="2813"/>
    </contour>
  </outline>
</glyph>
<glyph name="J.alt" format="2">
  <advance width="2404"/>
  <outline>
    <contour>
      <point x="920" y="3072" type="line"/>
      <point x="2344" y="3072" type="line"/>
      <point x="2344" y="3015" type="line"/>
      <point x="920" y="3015" type="line"/>
    </contour>
    <contour>
      <point x="1422" y="3072" type="line"/>
      <point x="1934" y="3072" type="line"/>
      <point x="1934" y="1034" type="line"/>
      <point x="1872" y="420"/>
      <point x="1539" y="-62"/>
      <point x="849" y="-62" type="curve" smooth="yes"/>
      <point x="339" y="-62"/>
      <point x="77" y="307"/>
      <point x="77" y="635" type="curve" smooth="yes"/>
      <point x="77" y="920"/>
      <point x="259" y="1075"/>
      <point x="454" y="1075" type="curve" smooth="yes"/>
      <point x="628" y="1075"/>
      <point x="776" y="971"/>
      <point x="776" y="757" type="curve" smooth="yes"/>
      <point x="776" y="583"/>
      <point x="622" y="442"/>
      <point x="443" y="442" type="curve" smooth="yes"/>
      <point x="314" y="442"/>
      <point x="196" y="506"/>
      <point x="149" y="596" type="curve"/>
      <point x="165" y="299"/>
      <point x="402" y="-2"/>
      <point x="828" y="-2" type="curve" smooth="yes"/>
      <point x="1293" y="-2"/>
      <point x="1422" y="389"/>
      <point x="1422" y="962" type="curve" smooth="yes"/>
    </contour>
  </outline>
</glyph>
<glyph name="R.alt" format="2">
  <advance width="2871"/>
  <outline>
    <contour>
      <point x="1470" y="1569" type="curve" smooth="yes"/>
      <point x="814" y="1569" type="line"/>
      <point x="814" y="1606" type="line"/>
      <point x="1418" y="1606" type="line" smooth="yes"/>
      <point x="1811" y="1606"/>
      <point x="2022" y="1848"/>
      <point x="2022" y="2314" type="curve" smooth="yes"/>
      <point x="2022" y="2780"/>
      <point x="1811" y="3015"/>
      <point x="1418" y="3015" type="curve" smooth="yes"/>
      <point x="77" y="3015" type="line"/>
      <point x="77" y="3072" type="line"/>
      <point x="1470" y="3072" type="line" smooth="yes"/>
      <point x="2119" y="3072"/>
      <point x="2555" y="2846"/>
      <point x="2555" y="2314" type="curve" smooth="yes"/>
      <point x="2555" y="1782"/>
      <point x="2160" y="1569"/>
    </contour>
    <contour>
      <point x="77" y="57" type="line"/>
      <point x="1449" y="57" type="line"/>
      <point x="1449" y="0" type="line"/>
      <point x="77" y="0" type="line"/>
    </contour>
    <contour>
      <point x="506" y="3072" type="line"/>
      <point x="1019" y="3072" type="line"/>
      <point x="1019" y="0" type="line"/>
      <point x="506" y="0" type="line"/>
    </contour>
    <contour>
      <point x="2832" y="0" type="line"/>
      <point x="2766" y="0"/>
      <point x="2610" y="0"/>
      <point x="2463" y="0" type="curve" smooth="yes"/>
      <point x="1447" y="0"/>
      <point x="2386" y="1548"/>
      <point x="1398" y="1548" type="curve" smooth="yes"/>
      <point x="814" y="1548" type="line"/>
      <point x="814" y="1577" type="line"/>
      <point x="1602" y="1577" type="line" smooth="yes"/>
      <point x="2997" y="1577"/>
      <point x="2194" y="57"/>
      <point x="2688" y="57" type="curve" smooth="yes"/>
      <point x="2774" y="57"/>
      <point x="2775" y="57"/>
      <point x="2832" y="57" type="curve"/>
    </contour>
  </outline>
</glyph>
<glyph name="fj.lig" format="2">
  <advance width="2428"/>
  <outline>
    <contour>
      <point x="103" y="56" type="line"/>
      <point x="1316.5" y="56" type="line"/>
      <point x="1316.5" y="0" type="line"/>
      <point x="103" y="0" type="line"/>
    </contour>
    <contour>
      <point x="2084" y="-49" type="line" smooth="yes"/>
      <point x="2084" y="-586"/>
      <point x="1871.5" y="-1065"/>
      <point x="1319" y="-1065" type="curve" smooth="yes"/>
      <point x="966.5" y="-1065"/>
      <point x="753.5" y="-856.5"/>
      <point x="753.5" y="-603" type="curve" smooth="yes"/>
      <point x="753.5" y="-414.5"/>
      <point x="883.5" y="-303.5"/>
      <point x="1037" y="-303.5" type="curve" smooth="yes"/>
      <point x="1170" y="-303.5"/>
      <point x="1318" y="-381"/>
      <point x="1318" y="-565.5" type="curve" smooth="yes"/>
      <point x="1318" y="-745"/>
      <point x="1194" y="-834"/>
      <point x="1029" y="-834" type="curve" smooth="yes"/>
      <point x="963" y="-834"/>
      <point x="895" y="-803"/>
      <point x="860" y="-761.5" type="curve"/>
      <point x="893" y="-882"/>
      <point x="1061" y="-1005.5"/>
      <point x="1287" y="-1005.5" type="curve" smooth="yes"/>
      <point x="1686.5" y="-1005.5"/>
      <point x="1613.5" y="-438"/>
      <point x="1613.5" y="82" type="curve" smooth="yes"/>
      <point x="1613.5" y="1828" type="line"/>
      <point x="103" y="1828" type="line"/>
      <point x="103" y="1884" type="line"/>
      <point x="2084" y="1884" type="line"/>
    </contour>
    <contour>
      <point x="1989" y="2823.5" type="curve"/>
      <point x="1944" y="2933.5"/>
      <point x="1790" y="3055.5"/>
      <point x="1472" y="3055.5" type="curve" smooth="yes"/>
      <point x="1064.5" y="3055.5"/>
      <point x="932" y="2732"/>
      <point x="932" y="2212" type="curve" smooth="yes"/>
      <point x="932" y="0" type="line"/>
      <point x="471.5" y="0" type="line"/>
      <point x="471.5" y="2097" type="line" smooth="yes"/>
      <point x="471.5" y="2664.5"/>
      <point x="807" y="3113"/>
      <point x="1472" y="3113" type="curve" smooth="yes"/>
      <point x="1896" y="3113"/>
      <point x="2099" y="2899.5"/>
      <point x="2099" y="2656" type="curve" smooth="yes"/>
      <point x="2099" y="2467.5"/>
      <point x="1979.5" y="2362"/>
      <point x="1826" y="2362" type="curve" smooth="yes"/>
      <point x="1693" y="2362"/>
      <point x="1545" y="2439.5"/>
      <point x="1545" y="2624" type="curve" smooth="yes"/>
      <point x="1545" y="2793.5"/>
      <point x="1679" y="2891"/>
      <point x="1813" y="2891" type="curve" smooth="yes"/>
      <point x="1908" y="2891"/>
      <point x="1963.5" y="2857.5"/>
    </contour>
  </outline>
</glyph>
<glyph name="four.alt" format="2">
  <advance width="619"/>
  <outline>
    <contour>
      <point x="554" y="14" type="line"/>
      <point x="554" y="0" type="line"/>
      <point x="265" y="0" type="line"/>
      <point x="265" y="14" type="line"/>
    </contour>
    <contour>
      <point x="479" y="498" type="curve"/>
      <point x="479" y="-1" type="line"/>
      <point x="360" y="-1" type="line"/>
      <point x="360" y="468" type="line"/>
      <point x="396" y="468"/>
      <point x="455" y="484"/>
    </contour>
    <contour>
      <point x="40" y="199" type="curve"/>
      <point x="569" y="199" type="line"/>
      <point x="569" y="185" type="line"/>
      <point x="15" y="185" type="line"/>
      <point x="155" y="385"/>
      <point x="316" y="600"/>
      <point x="336" y="750" type="curve"/>
      <point x="462" y="750" type="line"/>
      <point x="443" y="595"/>
      <point x="181" y="393"/>
    </contour>
  </outline>
</glyph>
